<?xml version="1.0" encoding="UTF-8"?>
<svg version="1.1" xmlns="http://www.w3.org/2000/svg" width="236" height="239">
<path d="M0 0 C5.50655925 4.19547372 6.77802875 9.82493404 8 16.4375 C8.84732767 22.90118545 8.89967184 28.77052764 5.04296875 34.24609375 C4.34107422 35.11427734 4.34107422 35.11427734 3.625 36 C4.77355469 35.96519531 5.92210937 35.93039063 7.10546875 35.89453125 C30.53841185 35.38781824 49.91333083 43.03892619 66.921875 59.1796875 C87.05426688 80.48256728 90.23708249 105.17064964 89.625 133 C86.655 133.99 86.655 133.99 83.625 135 C83.65851563 135.98871094 83.69203125 136.97742188 83.7265625 137.99609375 C83.72031932 142.14052638 82.96455674 146.04490746 82 150.0625 C81.82758789 150.79331787 81.65517578 151.52413574 81.47753906 152.27709961 C79.65745841 159.55821081 76.84337368 166.23068735 73.625 173 C74.285 173 74.945 173 75.625 173 C77.05387787 175.85775573 76.89661396 177.81608075 76.625 181 C75.54882516 183.41566906 74.48346855 185.51000858 73.125 187.75 C72.76188721 188.36270752 72.39877441 188.97541504 72.0246582 189.60668945 C61.31198431 207.29451978 46.85534392 219.29886277 28.8125 228.875 C27.89227051 229.36419922 26.97204102 229.85339844 26.02392578 230.35742188 C24.70303955 231.04288086 24.70303955 231.04288086 23.35546875 231.7421875 C22.56551514 232.1532373 21.77556152 232.56428711 20.96166992 232.98779297 C16.47646257 234.93071113 12.21758235 235.13669706 7.375 235.125 C5.78945313 235.12886719 5.78945313 235.12886719 4.171875 235.1328125 C1.49520108 235.03258462 -1.04512334 234.82611682 -3.6953125 234.50390625 C-8.4728069 233.94149235 -13.19240548 233.80872156 -18 233.8125 C-18.87100342 233.81185547 -19.74200684 233.81121094 -20.6394043 233.81054688 C-25.91659337 233.8531478 -30.96846494 234.22456908 -36.1875 235 C-57.7943273 238.16993367 -74.22248656 232.54087892 -91.890625 220.25 C-94.11931043 218.56679701 -96.25326356 216.81586567 -98.375 215 C-99.18453125 214.32324219 -99.9940625 213.64648438 -100.828125 212.94921875 C-105.35825482 209.03746555 -109.57724939 204.90468789 -113.5625 200.4375 C-114.31917969 199.59058594 -115.07585937 198.74367187 -115.85546875 197.87109375 C-117.64973139 194.48090598 -117.1795964 192.73655839 -116.50805664 189.05932617 C-116.2666483 185.32303382 -118.17306185 182.58371665 -120 179.4375 C-124.51427854 171.0860847 -129.375 161.65475753 -129.375 152 C-130.15875 152.061875 -130.9425 152.12375 -131.75 152.1875 C-132.61625 152.125625 -133.4825 152.06375 -134.375 152 C-141.75198886 140.93451671 -138.39002621 117.92698549 -136.14428711 105.49780273 C-134.47766959 97.48127063 -132.29989766 89.6545194 -129.375 82 C-130.49648437 81.92652344 -130.49648437 81.92652344 -131.640625 81.8515625 C-132.62546875 81.77679688 -133.6103125 81.70203125 -134.625 81.625 C-135.59953125 81.55539063 -136.5740625 81.48578125 -137.578125 81.4140625 C-140.32411104 81.00753384 -142.09492943 80.57083203 -144.375 79 C-145.63434578 74.2324767 -145.49645978 71.38663134 -143.375 67 C-132.8114819 53.02889542 -111.88623823 43.3245449 -94.9609375 40.4375 C-88.74562891 39.7331176 -82.49914339 39.64071667 -76.25 39.5625 C-75.08243164 39.54002197 -73.91486328 39.51754395 -72.71191406 39.49438477 C-60.12248972 39.52893216 -49.76828867 42.96165553 -39.375 50 C-39.26929687 48.69675781 -39.16359375 47.39351562 -39.0546875 46.05078125 C-38.50793405 41.14438842 -37.17236725 36.81259319 -35.5 32.1875 C-33.65161123 26.90795075 -31.97848257 21.71674744 -30.75 16.25 C-29.19314599 9.80017623 -26.97634868 5.86630785 -21.375 2.1875 C-14.79839743 -1.78158241 -7.3148496 -2.16736284 0 0 Z M-17.375 16 C-21.08892405 19.71392405 -21.91225785 25.38206606 -23.4375 30.3125 C-23.80166016 31.43462891 -24.16582031 32.55675781 -24.54101562 33.71289062 C-26.9615403 41.50241644 -28.09795229 48.85109225 -28.375 57 C-28.045 57 -27.715 57 -27.375 57 C-27.13265625 55.9378125 -26.8903125 54.875625 -26.640625 53.78125 C-22.21487312 34.84700145 -22.21487312 34.84700145 -16.81640625 31.3359375 C-14.91584953 30.31120174 -12.98761739 29.33556307 -11.03125 28.421875 C-8.22224151 26.91822928 -6.4109648 25.442213 -4.375 23 C-3.91725875 19.79581126 -3.76527983 17.93062552 -5.5625 15.1875 C-10.20148584 12.14816445 -13.02393862 12.82490115 -17.375 16 Z M-6.375 50 C-7.72641751 53.95806622 -8.79571199 57.74988449 -9.5 61.875 C-9.66757813 62.84179688 -9.83515625 63.80859375 -10.0078125 64.8046875 C-10.12898437 65.52914062 -10.25015625 66.25359375 -10.375 67 C-6.66277804 67 -5.84109923 65.68749789 -3.140625 63.3671875 C7.86235061 54.84718427 24.33263544 54.43922837 37.625 55 C30.29176692 47.98560314 17.96697136 49.76121459 8.5625 49.875 C7.11003222 49.88505168 5.6575577 49.89417365 4.20507812 49.90234375 C0.67824318 49.92417983 -2.8483342 49.95858851 -6.375 50 Z M-61.375 55 C-60.41303668 57.66389844 -59.58117535 59.75417555 -57.75 61.9375 C-55.90874556 64.69938165 -56.1536186 66.75307278 -56.375 70 C-54.725 69.67 -53.075 69.34 -51.375 69 C-53.8722881 63.63545519 -56.35277412 59.3483523 -60.375 55 C-60.705 55 -61.035 55 -61.375 55 Z M-88.375 51 C-85.45922086 53.99830119 -82.29887963 56.66922339 -79.1171875 59.37890625 C-77.375 61 -77.375 61 -76.375 63 C-77.33019531 62.9278125 -78.28539062 62.855625 -79.26953125 62.78125 C-95.52358069 61.11893607 -95.52358069 61.11893607 -111.375 64 C-111.705 64.66 -112.035 65.32 -112.375 66 C-105.94 65.505 -105.94 65.505 -99.375 65 C-99.045 65.66 -98.715 66.32 -98.375 67 C-98.045 66.34 -97.715 65.68 -97.375 65 C-94.66053021 64.68758545 -92.03590639 64.48663408 -89.3125 64.375 C-88.55388672 64.33632812 -87.79527344 64.29765625 -87.01367188 64.2578125 C-85.13452805 64.16326438 -83.25479664 64.08053244 -81.375 64 C-81.375 64.66 -81.375 65.32 -81.375 66 C-81.94734375 66.10183594 -82.5196875 66.20367187 -83.109375 66.30859375 C-85.77775646 67.12291016 -87.43465688 68.34673122 -89.625 70.0625 C-90.68460938 70.88427734 -90.68460938 70.88427734 -91.765625 71.72265625 C-92.56226563 72.35494141 -92.56226563 72.35494141 -93.375 73 C-92.715 73.33 -92.055 73.66 -91.375 74 C-88.79424569 72.57643373 -88.79424569 72.57643373 -86 70.625 C-76.52168963 64.2124504 -67.35771554 65.97494655 -56.375 67 C-59.75298269 65.04736123 -62.9267571 64.47644312 -66.75 63.8125 C-72.2964399 62.59786065 -74.87092536 61.32281094 -78.109375 56.71875 C-80.12274904 53.98453834 -82.42180112 52.64066604 -85.375 51 C-86.365 51 -87.355 51 -88.375 51 Z M-66.375 74 C-66.375 74.99 -66.375 75.98 -66.375 77 C-65.90449219 76.66226563 -65.43398437 76.32453125 -64.94921875 75.9765625 C-64.32660156 75.53054687 -63.70398438 75.08453125 -63.0625 74.625 C-62.44761719 74.18414062 -61.83273438 73.74328125 -61.19921875 73.2890625 C-59.6097608 72.16589093 -57.99437829 71.07958553 -56.375 70 C-61.11647821 70 -62.72522743 71.09677182 -66.375 74 Z M34.25 84.5 C31.97130195 89.40796503 31.84620861 93.67560988 32.625 99 C34.98034436 103.89186906 38.3423458 106.81078942 42.625 110 C46.69600084 111.35700028 50.43451702 111.86631806 54.53125 110.24609375 C59.3630221 107.6357084 61.90593694 105.15718919 63.625 100 C64.39745664 93.46577665 63.56566541 89.28878778 59.625 84 C51.29797575 77.54230772 41.85909671 76.49042452 34.25 84.5 Z M6.125 107.625 C4.16937518 110.72140596 4.02475523 112.39853135 4.625 116 C6.80056503 119.21983624 8.31761502 119.91057891 12.0625 121 C15.64592291 121.27002394 15.64592291 121.27002394 18.5625 119.5 C20.9152751 117.07757669 20.9152751 117.07757669 21.1875 113.5 C20.85895548 110.03220873 20.85895548 110.03220873 19.125 107.5625 C14.75382788 104.83051743 10.45295938 104.81182641 6.125 107.625 Z M-126.8125 111.0625 C-128.86062148 114.91296839 -128.60185696 116.85935777 -127.375 121 C-125.875 123.16666667 -125.875 123.16666667 -123.375 124 C-119.78028996 124.24838381 -119.78028996 124.24838381 -116.375 123 C-114.16551359 119.96195618 -113.35002584 118.07388901 -113.4375 114.3125 C-114.62362666 111.38672091 -115.56696918 110.44196177 -118.375 109 C-122.32788069 108.34118655 -123.7218623 108.44734502 -126.8125 111.0625 Z M-15.0625 121.5 C-17.66084235 122.8465533 -17.66084235 122.8465533 -18.375 125.9375 C-18.62664183 128.91511242 -18.62664183 128.91511242 -17.3125 130.875 C-14.48511239 132.51670894 -12.58198706 132.46768561 -9.375 132 C-7.22717329 130.44202118 -7.22717329 130.44202118 -6.375 128 C-7.0264851 124.95973619 -7.74519859 123.49949767 -10.1875 121.5625 C-12.44615457 120.81768166 -12.44615457 120.81768166 -15.0625 121.5 Z M-109.375 131 C-109.705 132.32 -110.035 133.64 -110.375 135 C-107.9 135.495 -107.9 135.495 -105.375 136 C-105.045 134.68 -104.715 133.36 -104.375 132 C-106.025 131.67 -107.675 131.34 -109.375 131 Z M-36.375 133 C-37.035 134.32 -37.695 135.64 -38.375 137 C-37.715 137.66 -37.055 138.32 -36.375 139 C-33.77219432 138.67958603 -33.77219432 138.67958603 -31.375 138 C-31.375 136.35 -31.375 134.7 -31.375 133 C-33.025 133 -34.675 133 -36.375 133 Z M70.421875 138.3125 C69.4421875 138.58320313 68.4625 138.85390625 67.453125 139.1328125 C65.92945313 139.56207031 65.92945313 139.56207031 64.375 140 C62.828125 140.42925781 62.828125 140.42925781 61.25 140.8671875 C58.70702573 141.57356924 56.16546648 142.28466146 53.625 143 C53.63023682 143.65895264 53.63547363 144.31790527 53.64086914 144.99682617 C53.80772378 169.1865254 53.80772378 169.1865254 52.625 180 C54.00206825 179.73988711 55.37658555 179.46626234 56.75 179.1875 C57.51570312 179.03667969 58.28140625 178.88585937 59.0703125 178.73046875 C63.29792812 177.52165511 66.64870633 176.29508344 69.34765625 172.71484375 C74.79027872 161.43290621 78.31365877 149.46479192 79.625 137 C76.07942446 137 73.77626821 137.37639027 70.421875 138.3125 Z M-92.375 139 C-92.705 140.32 -93.035 141.64 -93.375 143 C-92.055 142.67 -90.735 142.34 -89.375 142 C-89.705 141.01 -90.035 140.02 -90.375 139 C-91.035 139 -91.695 139 -92.375 139 Z M-65.375 142 C-64.375 144 -64.375 144 -64.375 144 Z M41.83984375 145.09375 C40.78659912 145.29677734 39.73335449 145.49980469 38.64819336 145.70898438 C36.62577515 146.10053711 36.62577515 146.10053711 34.5625 146.5 C30.293125 147.325 26.02375 148.15 21.625 149 C21.625 162.53 21.625 176.06 21.625 190 C30.75743468 187.51368552 30.75743468 187.51368552 39.8125 184.8125 C40.91980469 184.46832031 42.02710938 184.12414062 43.16796875 183.76953125 C43.97878906 183.51558594 44.78960937 183.26164062 45.625 183 C48.81018194 169.93696218 48.96821078 157.39050074 48.625 144 C46.36556604 144 44.04275958 144.66806578 41.83984375 145.09375 Z M9.93359375 150.65625 C8.98935547 150.79160156 8.04511719 150.92695313 7.07226562 151.06640625 C6.07904297 151.20949219 5.08582031 151.35257813 4.0625 151.5 C3.06541016 151.64308594 2.06832031 151.78617188 1.04101562 151.93359375 C-1.43107969 152.28843997 -3.90307963 152.64393741 -6.375 153 C-6.31441406 153.63276855 -6.25382813 154.26553711 -6.19140625 154.91748047 C-4.93114464 168.31745436 -4.06909022 181.5399696 -4.375 195 C6.30122779 194.81758102 6.30122779 194.81758102 15.625 191 C17.63113011 177.40289594 16.38077693 163.65796881 15.625 150 C13.71579959 150 11.8192829 150.38525276 9.93359375 150.65625 Z M-124.375 154 C-122.74748837 163.76506977 -118.83532959 172.47580569 -114.375 181.25 C-114.05523193 181.90605225 -113.73546387 182.56210449 -113.40600586 183.23803711 C-111.79475323 186.29929527 -110.97682992 187.7982502 -107.625 188.921875 C-106.8825 188.94765625 -106.14 188.9734375 -105.375 189 C-105.66117188 187.77410156 -105.94734375 186.54820312 -106.2421875 185.28515625 C-107.55592712 179.37332798 -108.52744585 173.41330496 -109.5 167.4375 C-109.68175781 166.33341797 -109.86351562 165.22933594 -110.05078125 164.09179688 C-110.49442684 161.39489867 -110.93502773 158.6974999 -111.375 156 C-115.665 155.34 -119.955 154.68 -124.375 154 Z M-20.57421875 154.65625 C-21.78271484 154.79160156 -22.99121094 154.92695313 -24.23632812 155.06640625 C-25.49896484 155.20949219 -26.76160156 155.35257813 -28.0625 155.5 C-29.97385742 155.71462891 -29.97385742 155.71462891 -31.92382812 155.93359375 C-35.07438759 156.2875892 -38.2247663 156.64311905 -41.375 157 C-41.31513916 157.60626221 -41.25527832 158.21252441 -41.19360352 158.8371582 C-40.39077253 167.27659833 -39.84324712 175.72780137 -39.3125 184.1875 C-39.22083956 185.63086805 -39.12904358 187.07422749 -39.03710938 188.51757812 C-38.81484709 192.01162121 -38.59440697 195.50577632 -38.375 199 C-31.94116223 199.11346415 -25.696071 198.86542909 -19.3125 198.0625 C-18.17651367 197.93198242 -18.17651367 197.93198242 -17.01757812 197.79882812 C-13.39055537 197.64514961 -13.39055537 197.64514961 -10.375 196 C-8.15677247 183.62791404 -7.77155483 166.23354495 -11.375 154 C-14.49912318 154 -17.46951148 154.30642383 -20.57421875 154.65625 Z M-106.375 157 C-105.54663522 167.38053179 -105.54663522 167.38053179 -103.5 177.375 C-103.33886719 178.03371094 -103.17773438 178.69242188 -103.01171875 179.37109375 C-101.44561241 185.53417812 -101.44561241 185.53417812 -98.375 191 C-95.29387066 192.31285556 -92.16920859 192.84146547 -88.875 193.375 C-88.00746094 193.53871094 -87.13992187 193.70242187 -86.24609375 193.87109375 C-82.89718889 194.48704379 -79.78663241 195 -76.375 195 C-76.51680485 191.27066913 -76.66422209 187.54157866 -76.8125 183.8125 C-76.85181641 182.77673828 -76.89113281 181.74097656 -76.93164062 180.67382812 C-76.97353516 179.63291016 -77.01542969 178.59199219 -77.05859375 177.51953125 C-77.09525146 176.58214111 -77.13190918 175.64475098 -77.16967773 174.67895508 C-77.48028736 169.11346579 -77.9474822 163.55773136 -78.375 158 C-92.235 157.505 -92.235 157.505 -106.375 157 Z M-54.0390625 157.21875 C-55.16054687 157.26386719 -56.28203125 157.30898437 -57.4375 157.35546875 C-58.613125 157.40316406 -59.78875 157.45085937 -61 157.5 C-62.18335937 157.54769531 -63.36671875 157.59539062 -64.5859375 157.64453125 C-67.51563958 157.7626644 -70.44532613 157.88116965 -73.375 158 C-73.58762572 166.10312439 -73.20905859 173.99727993 -72.4375 182.0625 C-72.35064941 182.97862061 -72.26379883 183.89474121 -72.17431641 184.83862305 C-71.79174668 188.65335941 -71.38230838 192.29283105 -70.375 196 C-61.71329426 197.85479354 -53.20141419 198.54736337 -44.375 199 C-44.14058055 184.83745864 -44.39008054 171.03621618 -46.375 157 C-48.93395197 157 -51.48208837 157.11543791 -54.0390625 157.21875 Z " fill="#FBFBFB" transform="translate(145.375,2)"/>
<path d="M0 0 C0.66 0 1.32 0 2 0 C2.33 1.32 2.66 2.64 3 4 C2.34 4 1.68 4 1 4 C0.9175 5.11375 0.835 6.2275 0.75 7.375 C0 11 0 11 -2.0625 12.4375 C-3.0215625 12.7159375 -3.0215625 12.7159375 -4 13 C-3.50269348 8.02693484 -2.44697666 4.36200187 0 0 Z " fill="#CACACA" transform="translate(113,27)"/>
<path d="M0 0 C1.98 0.495 1.98 0.495 4 1 C4.33 2.65 4.66 4.3 5 6 C4.38125 6.144375 3.7625 6.28875 3.125 6.4375 C0.96741678 6.93152225 0.96741678 6.93152225 -1 8 C-0.67 5.36 -0.34 2.72 0 0 Z " fill="#E3E3E3" transform="translate(10,106)"/>
<path d="M0 0 C2.31 0.33 4.62 0.66 7 1 C7 2.32 7 3.64 7 5 C4.36 5.33 1.72 5.66 -1 6 C-0.67 4.02 -0.34 2.04 0 0 Z " fill="#E3E3E3" transform="translate(157,231)"/>
<path d="M0 0 C0.66 0.33 1.32 0.66 2 1 C1.649375 1.78375 1.29875 2.5675 0.9375 3.375 C0.628125 4.24125 0.31875 5.1075 0 6 C0.33 6.66 0.66 7.32 1 8 C0.01 8.33 -0.98 8.66 -2 9 C-2.93423645 5.98968256 -3.04449911 5.13349732 -2 2 C-1.34 2 -0.68 2 0 2 C0 1.34 0 0.68 0 0 Z " fill="#CACACA" transform="translate(17,85)"/>
<path d="M0 0 C0.66 0.66 1.32 1.32 2 2 C0.35 3.98 -1.3 5.96 -3 8 C-3.75 6.25 -3.75 6.25 -4 4 C-2.0625 1.75 -2.0625 1.75 0 0 Z " fill="#D8D8D8" transform="translate(4,70)"/>
<path d="M0 0 C-0.33 1.98 -0.66 3.96 -1 6 C-1.99 5.67 -2.98 5.34 -4 5 C-4.6875 2.9375 -4.6875 2.9375 -5 1 C-3 0 -3 0 0 0 Z " fill="#CBCBCB" transform="translate(222,179)"/>
<path d="M0 0 C0.99 0.33 1.98 0.66 3 1 C2 4 2 4 -0.0625 5.1875 C-0.701875 5.455625 -1.34125 5.72375 -2 6 C-1.125 1.125 -1.125 1.125 0 0 Z " fill="#DCDCDC" transform="translate(111,34)"/>
<path d="M0 0 C0.66 0 1.32 0 2 0 C3.0625 2.375 3.0625 2.375 4 5 C3.67 5.66 3.34 6.32 3 7 C0.46587529 5.73293765 0.02161992 4.59334288 -1 2 C-0.67 1.34 -0.34 0.68 0 0 Z " fill="#C0C0C0" transform="translate(224,81)"/>
<path d="M0 0 C0.99 0.33 1.98 0.66 3 1 C2.34 1 1.68 1 1 1 C1 1.66 1 2.32 1 3 C0.34 3 -0.32 3 -1 3 C-1.33 3.66 -1.66 4.32 -2 5 C-2.99 4.67 -3.98 4.34 -5 4 C-3.36587557 2.29159719 -2.13093906 1.06546953 0 0 Z " fill="#B5B5B5" transform="translate(32,48)"/>
<path d="M0 0 C2.31 0 4.62 0 7 0 C7 0.33 7 0.66 7 1 C4.69 1 2.38 1 0 1 C0 0.67 0 0.34 0 0 Z " fill="#B6B6B6" transform="translate(146,53)"/>
</svg>
