<?xml version="1.0" encoding="UTF-8"?>
<svg version="1.1" xmlns="http://www.w3.org/2000/svg" width="248" height="222">
<path d="M0 0 C1.30582031 -0.00386719 2.61164062 -0.00773438 3.95703125 -0.01171875 C4.97095947 -0.00229248 4.97095947 -0.00229248 6.00537109 0.00732422 C8.0576484 0.02333868 10.107941 0.00747923 12.16015625 -0.01171875 C24.35757569 0.02433274 24.35757569 0.02433274 30.1953125 3.3984375 C31.54094521 11.29337324 30.81818964 18.79009047 30.0046711 26.68952751 C29.75651511 29.10135547 29.52017217 31.5141014 29.28660583 33.92738342 C28.78730745 39.06461139 28.27349362 44.20033183 27.7578125 49.3359375 C27.16282946 55.26559894 26.57419854 61.19577649 25.99952507 67.12744331 C25.76957236 69.47074996 25.52923262 71.81282312 25.28822327 74.15501404 C24.52726094 81.80331633 24.05378418 89.38757444 24.03491211 97.07641602 C24.0311889 98.17294825 24.0311889 98.17294825 24.02739048 99.29163265 C23.63395164 106.84280775 23.63395164 106.84280775 26.1953125 113.3984375 C27.57691365 113.4912208 28.96319288 113.51590793 30.34790039 113.51196289 C31.66915672 113.51184959 31.66915672 113.51184959 33.0171051 113.51173401 C34.45303261 113.50399208 34.45303261 113.50399208 35.91796875 113.49609375 C36.89317978 113.4946788 37.86839081 113.49326385 38.87315369 113.49180603 C42.00140393 113.48618883 45.12958373 113.47363343 48.2578125 113.4609375 C50.37304584 113.45592472 52.48828031 113.45136143 54.60351562 113.44726562 C59.80080546 113.43621381 64.99805395 113.41945896 70.1953125 113.3984375 C70.19346891 112.85159711 70.19162533 112.30475672 70.18972588 111.74134541 C70.14553682 98.42901038 70.11257876 85.11668822 70.09168816 71.80429554 C70.08124627 65.36649151 70.06707954 58.92874038 70.04443359 52.4909668 C70.02271986 46.27940538 70.01074693 40.06789488 70.00555801 33.85629845 C70.00185963 31.48520799 69.99463774 29.11412034 69.98385239 26.74305153 C69.96935719 23.42474954 69.96733376 20.10665858 69.96826172 16.78833008 C69.96107117 15.80577744 69.95388062 14.82322479 69.94647217 13.81089783 C69.97310834 5.0218377 69.97310834 5.0218377 72.1953125 1.3984375 C77.28285938 -0.29741146 82.69453593 0.17312014 88.01928711 0.15820312 C90.12198297 0.14848754 92.22370486 0.1174462 94.32617188 0.0859375 C95.66666088 0.07940776 97.00715685 0.07415717 98.34765625 0.0703125 C99.56445068 0.0609668 100.78124512 0.05162109 102.03491211 0.04199219 C105.46521928 0.4288789 106.8405182 0.90682245 109.1953125 3.3984375 C110.49892675 7.07411861 110.40090561 10.89982522 110.4765625 14.75537109 C110.49460938 15.49114883 110.51265625 16.22692657 110.53125 16.98500061 C110.5900647 19.42221382 110.64260189 21.85952279 110.6953125 24.296875 C110.73586763 26.00966469 110.77689121 27.72244335 110.81835938 29.43521118 C110.92698189 33.96077333 111.03062449 38.48643447 111.1328125 43.012146 C111.71762758 71.32461643 111.71762758 71.32461643 112.6953125 99.625 C112.73076172 100.47661713 112.76621094 101.32823425 112.80273438 102.20565796 C112.98859344 106.07919941 113.43022511 109.57300056 114.1953125 113.3984375 C128.3853125 113.3984375 142.5753125 113.3984375 157.1953125 113.3984375 C161.73533712 99.77836364 159.84806119 87.43327118 157.7890625 73.5078125 C157.54162554 71.79164145 157.29501756 70.0753507 157.04919434 68.35894775 C156.40461987 63.86945062 155.75172592 59.38121014 155.09613037 54.89331055 C154.04547429 47.69822831 153.0031604 40.50196719 151.96931458 33.30445099 C151.60806946 30.80287238 151.24051429 28.30227785 150.87243652 25.80169678 C150.64973069 24.26073805 150.42726518 22.71974456 150.20507812 21.17871094 C150.10222 20.49180176 149.99936188 19.80489258 149.89338684 19.09716797 C148.35910445 8.32171601 148.35910445 8.32171601 150.4453125 3.5234375 C152.47845451 1.0546222 153.13320372 0.92025754 156.1953125 0.3984375 C159.98410875 0.17563321 163.77560569 0.21329739 167.5703125 0.2109375 C168.59898437 0.19869141 169.62765625 0.18644531 170.6875 0.17382812 C175.87520267 0.16380035 180.39608305 0.17078214 185.1953125 2.3984375 C187.75227356 4.95539856 187.72783269 6.51307073 188.265625 10.0625 C188.43964844 11.18398437 188.61367187 12.30546875 188.79296875 13.4609375 C188.96699219 14.6365625 189.14101562 15.8121875 189.3203125 17.0234375 C189.59294922 18.79847656 189.59294922 18.79847656 189.87109375 20.609375 C190.31983875 23.53802659 190.76090806 26.46763023 191.1953125 29.3984375 C185.76896085 31.20722138 179.86416688 30.45044534 174.1953125 30.3984375 C173.8653125 36.0084375 173.5353125 41.6184375 173.1953125 47.3984375 C174.62746094 47.59179688 176.05960938 47.78515625 177.53515625 47.984375 C179.40110853 48.24692105 181.26699042 48.50996772 183.1328125 48.7734375 C184.55110352 48.96292969 184.55110352 48.96292969 185.99804688 49.15625 C186.89716797 49.28515625 187.79628906 49.4140625 188.72265625 49.546875 C189.55531006 49.66208496 190.38796387 49.77729492 191.24584961 49.89599609 C192.21083374 50.14470459 192.21083374 50.14470459 193.1953125 50.3984375 C193.5253125 51.0584375 193.8553125 51.7184375 194.1953125 52.3984375 C188.2553125 52.7284375 182.3153125 53.0584375 176.1953125 53.3984375 C175.5353125 55.0484375 174.8753125 56.6984375 174.1953125 58.3984375 C180.4653125 58.7284375 186.7353125 59.0584375 193.1953125 59.3984375 C193.1953125 58.4084375 193.1953125 57.4184375 193.1953125 56.3984375 C193.8553125 56.3984375 194.5153125 56.3984375 195.1953125 56.3984375 C197.70442367 72.23473008 200.18282888 88.07550082 202.62718964 103.92190361 C203.7634593 111.28368152 204.90896203 118.64377929 206.07763672 126.00048828 C215.10097076 182.86236828 215.10097076 182.86236828 215.0390625 203.21875 C215.04071663 204.24808466 215.04071663 204.24808466 215.04240417 205.29821396 C214.98818724 215.23105223 214.98818724 215.23105223 212.75060272 218.52554893 C208.89212202 221.35360514 205.37660898 220.95208729 200.70581055 220.90637207 C199.73332965 220.91261203 198.76084875 220.918852 197.75889874 220.92528105 C194.49136494 220.94127066 191.22457095 220.92858316 187.95703125 220.91601562 C185.61812911 220.92143407 183.27923037 220.92855516 180.94033813 220.93725586 C174.58092034 220.95552494 168.22176147 220.94840674 161.86233902 220.93573952 C155.88842677 220.92665446 149.91453852 220.93358041 143.94062698 220.9394483 C131.38766513 220.95085725 118.83482009 220.93773551 106.2818774 220.91624683 C95.50849779 220.89837552 84.73529056 220.90147954 73.96191406 220.91992188 C61.45418998 220.94132309 48.9465683 220.94975858 36.43882847 220.93747282 C29.81671896 220.93114505 23.19470561 220.93042832 16.57260132 220.94361877 C10.34765138 220.95515145 4.12302783 220.94719847 -2.10188675 220.92404175 C-4.39003583 220.91874088 -6.67821226 220.92029183 -8.96635056 220.92909241 C-12.083003 220.93997676 -15.19860083 220.92636976 -18.31518555 220.90637207 C-19.2268514 220.91529496 -20.13851725 220.92421784 -21.07780933 220.93341112 C-27.15433889 220.85746055 -27.15433889 220.85746055 -30.3684082 218.58893585 C-32.47671146 215.37352029 -32.32039444 212.31104156 -32.23046875 208.59765625 C-32.22718063 207.84305618 -32.22389252 207.08845612 -32.22050476 206.31098938 C-32.20478305 203.90205289 -32.16077836 201.49451323 -32.1171875 199.0859375 C-32.10569091 197.47722498 -32.0959073 195.86849925 -32.08789062 194.25976562 C-32.07445486 192.70571511 -32.05952869 191.15167662 -32.04296875 189.59765625 C-32.03558182 188.88075119 -32.02819489 188.16384613 -32.02058411 187.42521667 C-31.93689693 182.94402934 -31.44591937 178.88706057 -30.8046875 174.3984375 C-17.6046875 174.0684375 -4.4046875 173.7384375 9.1953125 173.3984375 C9.5253125 168.7784375 9.8553125 164.1584375 10.1953125 159.3984375 C-2.6746875 159.3984375 -15.5446875 159.3984375 -28.8046875 159.3984375 C-28.3096875 155.4384375 -28.3096875 155.4384375 -27.8046875 151.3984375 C-5.0346875 150.9034375 -5.0346875 150.9034375 18.1953125 150.3984375 C19.61614322 140.92636929 19.61614322 140.92636929 20.1953125 131.3984375 C-2.5746875 130.9034375 -2.5746875 130.9034375 -25.8046875 130.3984375 C-24.51918708 115.22667096 -23.09931782 100.08205811 -21.4921875 84.94140625 C-21.27558173 82.89073741 -21.05903019 80.84006285 -20.8425293 78.78938293 C-20.39364575 74.54325997 -19.94298572 70.29732994 -19.49121094 66.05151367 C-18.91503157 60.63360207 -18.34519082 55.21504334 -17.77684021 49.79630566 C-17.3338895 45.58277287 -16.88672105 41.36969541 -16.43838501 37.15673256 C-16.22639464 35.15836705 -16.01589391 33.15984288 -15.80697632 31.16115379 C-15.5150633 28.37281471 -15.21722002 25.58516723 -14.91796875 22.79760742 C-14.83479401 21.99072479 -14.75161926 21.18384216 -14.66592407 20.35250854 C-12.93760037 4.48004866 -12.93760037 4.48004866 -9.60498047 1.29833984 C-6.27235932 0.22736848 -3.50370703 0.00999563 0 0 Z M180.1953125 62.3984375 C179.8653125 63.0584375 179.5353125 63.7184375 179.1953125 64.3984375 C179.5253125 65.0584375 179.8553125 65.7184375 180.1953125 66.3984375 C186.1353125 65.9034375 186.1353125 65.9034375 192.1953125 65.3984375 C192.1953125 64.4084375 192.1953125 63.4184375 192.1953125 62.3984375 C188.2353125 62.3984375 184.2753125 62.3984375 180.1953125 62.3984375 Z M190.7578125 143.76171875 C190.2421875 144.40496094 189.7265625 145.04820312 189.1953125 145.7109375 C184.53359371 151.28516295 179.36278264 156.29956209 174.1953125 161.3984375 C172.52735534 163.06381268 170.86066528 164.73045798 169.1953125 166.3984375 C164.1953125 171.3984375 159.1953125 176.3984375 154.1953125 181.3984375 C154.5253125 182.3884375 154.8553125 183.3784375 155.1953125 184.3984375 C170.3753125 184.3984375 185.5553125 184.3984375 201.1953125 184.3984375 C200.60505292 176.13480344 200.03513499 168.15899922 198.7578125 160.0234375 C198.63599609 159.19972656 198.51417969 158.37601563 198.38867188 157.52734375 C197.60311204 152.39067787 196.52886363 147.4209028 195.1953125 142.3984375 C192.22791634 142.05437381 192.22791634 142.05437381 190.7578125 143.76171875 Z M79.7578125 180.8984375 C77.35742611 180.94682518 74.95703549 180.99500327 72.55664062 181.04296875 C66.76948044 181.15905419 60.98237699 181.27768052 55.1953125 181.3984375 C54.81312483 183.05458407 54.48136148 184.72300774 54.1953125 186.3984375 C55.85696457 188.06008957 57.8604728 187.51803475 60.07933044 187.52285767 C60.77704056 187.51926239 61.47475067 187.51566711 62.19360352 187.51196289 C62.92526733 187.51210892 63.65693115 187.51225494 64.4107666 187.5124054 C66.84028034 187.51170617 69.26971833 187.50391335 71.69921875 187.49609375 C73.37930764 187.4942296 75.05939707 187.49280569 76.73948669 187.49180603 C81.17004893 187.48798057 85.6005786 187.47815006 90.03112793 187.46710205 C94.54874226 187.45688853 99.06636184 187.45230854 103.58398438 187.44726562 C112.45444143 187.43652781 121.32487426 187.41945106 130.1953125 187.3984375 C131.12954895 184.38812006 131.23981161 183.53193482 130.1953125 180.3984375 C113.37611252 180.31880766 96.57303012 180.54745796 79.7578125 180.8984375 Z M-22.8046875 203.3984375 C-22.48427353 206.00124318 -22.48427353 206.00124318 -21.8046875 208.3984375 C-19.8246875 208.3984375 -17.8446875 208.3984375 -15.8046875 208.3984375 C-15.1446875 207.0784375 -14.4846875 205.7584375 -13.8046875 204.3984375 C-14.4646875 203.4084375 -15.1246875 202.4184375 -15.8046875 201.3984375 C-19.26264533 200.96619277 -20.28444359 200.87819359 -22.8046875 203.3984375 Z M0.1953125 203.3984375 C0.51572647 206.00124318 0.51572647 206.00124318 1.1953125 208.3984375 C3.61177032 208.56531198 3.61177032 208.56531198 6.1953125 208.3984375 C6.8553125 207.7384375 7.5153125 207.0784375 8.1953125 206.3984375 C7.87489853 203.79563182 7.87489853 203.79563182 7.1953125 201.3984375 C3.24073402 201.05019943 3.24073402 201.05019943 0.1953125 203.3984375 Z M24.1953125 201.3984375 C23.51572647 203.79563182 23.51572647 203.79563182 23.1953125 206.3984375 C23.8553125 207.0584375 24.5153125 207.7184375 25.1953125 208.3984375 C27.79811818 208.07802353 27.79811818 208.07802353 30.1953125 207.3984375 C30.1953125 205.4184375 30.1953125 203.4384375 30.1953125 201.3984375 C28.2153125 201.3984375 26.2353125 201.3984375 24.1953125 201.3984375 Z M57.1953125 201.3984375 C56.08894855 203.78912484 56.08894855 203.78912484 55.1953125 206.3984375 C55.5253125 207.0584375 55.8553125 207.7184375 56.1953125 208.3984375 C57.8453125 208.0684375 59.4953125 207.7384375 61.1953125 207.3984375 C61.5253125 206.4084375 61.8553125 205.4184375 62.1953125 204.3984375 C61.5353125 203.4084375 60.8753125 202.4184375 60.1953125 201.3984375 C59.2053125 201.3984375 58.2153125 201.3984375 57.1953125 201.3984375 Z M117.1953125 201.3984375 C116.5353125 202.7184375 115.8753125 204.0384375 115.1953125 205.3984375 C117.03415131 207.68572484 117.03415131 207.68572484 119.8203125 207.5234375 C120.6040625 207.4821875 121.3878125 207.4409375 122.1953125 207.3984375 C122.8767948 205.50664547 122.8767948 205.50664547 123.1953125 203.3984375 C122.5353125 202.7384375 121.8753125 202.0784375 121.1953125 201.3984375 C119.8753125 201.3984375 118.5553125 201.3984375 117.1953125 201.3984375 Z M86.1953125 202.3984375 C85.8653125 203.7184375 85.5353125 205.0384375 85.1953125 206.3984375 C87.97645306 208.73234953 87.97645306 208.73234953 90.8828125 208.0234375 C91.6459375 207.8171875 92.4090625 207.6109375 93.1953125 207.3984375 C93.1953125 205.7484375 93.1953125 204.0984375 93.1953125 202.3984375 C90.8853125 202.3984375 88.5753125 202.3984375 86.1953125 202.3984375 Z M148.1953125 202.3984375 C147.5138302 204.29022953 147.5138302 204.29022953 147.1953125 206.3984375 C147.8553125 207.0584375 148.5153125 207.7184375 149.1953125 208.3984375 C151.28822407 208.31272089 151.28822407 208.31272089 153.1953125 207.3984375 C153.5253125 206.4084375 153.8553125 205.4184375 154.1953125 204.3984375 C153.8653125 203.7384375 153.5353125 203.0784375 153.1953125 202.3984375 C151.5453125 202.3984375 149.8953125 202.3984375 148.1953125 202.3984375 Z M172.1953125 202.3984375 C171.08694827 204.28159909 171.08694827 204.28159909 170.1953125 206.3984375 C170.5253125 207.0584375 170.8553125 207.7184375 171.1953125 208.3984375 C173.1753125 208.0684375 175.1553125 207.7384375 177.1953125 207.3984375 C177.78601264 205.45240476 177.78601264 205.45240476 178.1953125 203.3984375 C177.12886135 202.10210129 177.12886135 202.10210129 174.6328125 202.3359375 C173.8284375 202.3565625 173.0240625 202.3771875 172.1953125 202.3984375 Z M195.1953125 203.3984375 C195.1953125 205.0484375 195.1953125 206.6984375 195.1953125 208.3984375 C196.8453125 208.0684375 198.4953125 207.7384375 200.1953125 207.3984375 C199.8653125 205.7484375 199.5353125 204.0984375 199.1953125 202.3984375 C197.1207769 202.2493663 197.1207769 202.2493663 195.1953125 203.3984375 Z " fill="#FCFCFC" transform="translate(32.8046875,0.6015625)"/>
<path d="M0 0 C2.86724686 0.57344937 3.8614515 0.8614515 6 3 C4.68 4.65 3.36 6.3 2 8 C1.01 7.67 0.02 7.34 -1 7 C-0.67 4.69 -0.34 2.38 0 0 Z " fill="#E4E4E4" transform="translate(18,29)"/>
<path d="M0 0 C3 1 3 1 5 3 C4.34 3 3.68 3 3 3 C2.67 3.66 2.34 4.32 2 5 C1.01 5.33 0.02 5.66 -1 6 C-1.042721 4.33388095 -1.04063832 2.66617115 -1 1 C-0.67 0.67 -0.34 0.34 0 0 Z " fill="#E7E7E7" transform="translate(10,109)"/>
<path d="M0 0 C0.99 0.33 1.98 0.66 3 1 C3.6875 3.0625 3.6875 3.0625 4 5 C2.68 5.33 1.36 5.66 0 6 C0 4 0 2 0 0 Z " fill="#CFCFCF" transform="translate(233,113)"/>
<path d="M0 0 C0.99 0.33 1.98 0.66 3 1 C3.6875 3.0625 3.6875 3.0625 4 5 C2.68 5.33 1.36 5.66 0 6 C0 4 0 2 0 0 Z " fill="#CFCFCF" transform="translate(228,79)"/>
<path d="M0 0 C0.99 0 1.98 0 3 0 C2.67 2.31 2.34 4.62 2 7 C1.34 6.67 0.68 6.34 0 6 C0 4.02 0 2.04 0 0 Z " fill="#B9B9B9" transform="translate(244,212)"/>
<path d="M0 0 C0.99 0.33 1.98 0.66 3 1 C3.33 2.98 3.66 4.96 4 7 C3.34 6.67 2.68 6.34 2 6 C2 5.34 2 4.68 2 4 C1.34 4 0.68 4 0 4 C0 2.68 0 1.36 0 0 Z " fill="#B9B9B9" transform="translate(222,37)"/>
<path d="M0 0 C2 3 2 3 2 6 C1.34 6 0.68 6 0 6 C0 4.02 0 2.04 0 0 Z " fill="#9B9B9B" transform="translate(3,165)"/>
<path d="" fill="#7F7F7F" transform="translate(0,0)"/>
<path d="" fill="#000000" transform="translate(0,0)"/>
</svg>
