<?xml version="1.0" encoding="UTF-8"?>
<svg version="1.1" xmlns="http://www.w3.org/2000/svg" width="248" height="249">
<path d="M0 0 C0.99 0.66 1.98 1.32 3 2 C4.0625 4.8125 4.0625 4.8125 5 8 C5.65539327 9.67113192 6.32022341 11.3386373 7 13 C6.26394531 13.15855469 5.52789062 13.31710938 4.76953125 13.48046875 C-1.11887573 14.88839697 -5.29040718 15.89930987 -9 21 C-14.53737977 32.07475953 -14.71005732 45.95043414 -10.90234375 57.671875 C-8.12454047 64.83884798 -4.43061699 68.83901253 2 73 C2.9075 73.61875 3.815 74.2375 4.75 74.875 C11.35943234 77.16288042 18.40284806 77.00649218 24.875 74.3125 C28.73124979 72.3527665 31.82890531 69.92716433 35 67 C36.43421044 91.11598298 27.52548843 114.12645769 11.74609375 132.1875 C-4.08991483 148.40645616 -25.75262117 157.83201874 -48.43554688 158.29248047 C-71.04323827 158.4532916 -89.87116826 152.75893428 -108 139 C-108.68835938 138.48566406 -109.37671875 137.97132813 -110.0859375 137.44140625 C-119.09243344 130.24843551 -129.94770984 116.73563105 -132 105 C-131.10539062 104.5875 -130.21078125 104.175 -129.2890625 103.75 C-114.66741922 96.84392622 -104.60622544 88.83245001 -98.5625 73.3125 C-94.76497553 60.6047666 -96.21310402 46.50975321 -102.16796875 34.6796875 C-104.77553073 30.64598321 -107.4848433 28.50505223 -112 27 C-114.80637048 26.62472953 -117.58771559 26.3771932 -120.4140625 26.2109375 C-122.72834643 26.02215905 -124.77385622 25.63753413 -127 25 C-112.79814191 3.78075321 -94.64702141 -9.04861146 -69.75 -14.875 C-44.90137872 -19.27855314 -20.89870308 -13.98391801 0 0 Z M-62 -7 C-62.33 -6.34 -62.66 -5.68 -63 -5 C-60.69 -5 -58.38 -5 -56 -5 C-56 -5.66 -56 -6.32 -56 -7 C-57.98 -7 -59.96 -7 -62 -7 Z M-68 0 C-68 1.65 -68 3.3 -68 5 C-61.73 5 -55.46 5 -49 5 C-49 3.02 -49 1.04 -49 -1 C-55.43255401 -1.12086218 -61.61773055 -0.82351864 -68 0 Z M-78 12 C-78.20970559 16.14093698 -78.20970559 16.14093698 -77 20 C-67.76560786 20.4460261 -58.84895015 19.66479089 -49.6875 18.5625 C-48.55965088 18.42803467 -47.43180176 18.29356934 -46.26977539 18.1550293 C-41.26589035 17.96432358 -41.26589035 17.96432358 -37 16 C-36.95919217 14.00041636 -36.95745644 11.99954746 -37 10 C-50.81214575 9.73295529 -64.27309971 10.45641282 -78 12 Z M-58 35 C-58.2773501 38.18490007 -58.2773501 38.18490007 -56 41 C-55.46271707 43.9472919 -55.04346125 46.84141726 -54.6875 49.8125 C-54.56705322 50.76286133 -54.44660645 51.71322266 -54.32250977 52.69238281 C-53.3799491 60.33625684 -52.57041076 67.99298648 -51.765625 75.65234375 C-51.6567244 76.68136307 -51.54782379 77.71038239 -51.43562317 78.77058411 C-50.87956389 84.02672468 -50.33254627 89.28350638 -49.80151367 94.54223633 C-49.59585651 96.51256558 -49.38989606 98.4828632 -49.18359375 100.453125 C-49.04929962 101.82989662 -49.04929962 101.82989662 -48.91229248 103.23448181 C-48.82191711 104.08168289 -48.73154175 104.92888397 -48.63842773 105.80175781 C-48.56309311 106.54290833 -48.48775848 107.28405884 -48.41014099 108.04766846 C-48.06088877 110.311439 -48.06088877 110.311439 -46 113 C-47.38715178 95.81571353 -49.18774327 78.69259473 -51.125 61.5625 C-51.40520879 59.06578447 -51.68515805 56.5690398 -51.96484375 54.07226562 C-52.64025087 48.04783934 -53.31880988 42.023775 -54 36 C-55.32 35.67 -56.64 35.34 -58 35 Z M-13.625 89.3125 C-14.81996094 89.43044922 -14.81996094 89.43044922 -16.0390625 89.55078125 C-16.68617188 89.69902344 -17.33328125 89.84726563 -18 90 C-18.33 90.66 -18.66 91.32 -19 92 C-17.58376784 92.05447047 -16.16691809 92.09300508 -14.75 92.125 C-13.56664062 92.15980469 -13.56664062 92.15980469 -12.359375 92.1953125 C-9.79268059 91.9828378 -8.2083933 91.28654105 -6 90 C-9.03164585 88.98945138 -10.51750751 88.9734088 -13.625 89.3125 Z M-82 92 C-82 92.66 -82 93.32 -82 94 C-79.59454362 95.20272819 -78.05003047 95.10071472 -75.375 95.0625 C-74.55773437 95.05347656 -73.74046875 95.04445313 -72.8984375 95.03515625 C-72.27195312 95.02355469 -71.64546875 95.01195312 -71 95 C-71 94.01 -71 93.02 -71 92 C-74.63 92 -78.26 92 -82 92 Z M-18 95 C-18 95.66 -18 96.32 -18 97 C-16.68 96.67 -15.36 96.34 -14 96 C-15.32 95.67 -16.64 95.34 -18 95 Z M-75 98 C-75.33 98.66 -75.66 99.32 -76 100 C-74.35 99.67 -72.7 99.34 -71 99 C-72.32 98.67 -73.64 98.34 -75 98 Z M-41.65625 129.65625 C-42.83785706 129.7561322 -42.83785706 129.7561322 -44.04333496 129.85803223 C-46.52916967 130.06888042 -49.01457698 130.28435868 -51.5 130.5 C-53.19789043 130.64483913 -54.89580691 130.78937324 -56.59375 130.93359375 C-60.72947595 131.28553972 -64.86482552 131.64163516 -69 132 C-69 133.32 -69 134.64 -69 136 C-65.50107323 137.16630892 -63.13708753 136.95199754 -59.4609375 136.6953125 C-57.50607422 136.56189453 -57.50607422 136.56189453 -55.51171875 136.42578125 C-54.49150635 136.35157959 -54.49150635 136.35157959 -53.45068359 136.27587891 C-51.40369363 136.12708571 -49.35627738 135.9865409 -47.30859375 135.84765625 C-43.5373265 135.58437211 -39.76882726 135.29590401 -36 135 C-34.58315918 134.9067041 -34.58315918 134.9067041 -33.13769531 134.81152344 C-28.94684194 134.47374303 -26.76690671 134.19127236 -24 131 C-24.495 130.01 -24.495 130.01 -25 129 C-30.59906402 128.93360794 -36.08044653 129.16588754 -41.65625 129.65625 Z M-56 140 C-55.67 141.65 -55.34 143.3 -55 145 C-52.39491364 144.88608368 -49.79154454 144.75934452 -47.1875 144.625 C-46.44951172 144.5940625 -45.71152344 144.563125 -44.95117188 144.53125 C-41.18106885 144.32653852 -39.20349259 144.13566173 -36 142 C-36 141.01 -36 140.02 -36 139 C-42.76594019 138.88618045 -49.28837062 139.11978631 -56 140 Z M-49 147 C-48.67 147.66 -48.34 148.32 -48 149 C-46.68 149 -45.36 149 -44 149 C-44 148.34 -44 147.68 -44 147 C-45.65 147 -47.3 147 -49 147 Z " fill="#FBFBFB" transform="translate(176,54)"/>
<path d="M0 0 C18.35132891 32.53140621 24.88116589 67.77378486 14.81640625 104.4296875 C10.00689629 120.71631671 1.95844232 136.0224142 -9 149 C-9.84175781 150.00417969 -10.68351563 151.00835937 -11.55078125 152.04296875 C-31.36564307 174.98916655 -60.10732042 188.54460749 -90 192 C-94.58784197 192.27895029 -99.15446858 192.33484249 -103.75 192.3125 C-104.9757373 192.30686035 -106.20147461 192.3012207 -107.46435547 192.29541016 C-140.65450381 191.85299166 -171.14272192 178.10756567 -194.48486328 154.61035156 C-199.89286719 148.86249565 -205.4076838 142.52742085 -208 135 C-206.29279724 133.74845634 -204.58418058 132.49884128 -202.875 131.25 C-201.37453125 130.14785156 -201.37453125 130.14785156 -199.84375 129.0234375 C-197.71651806 127.50983016 -195.6316826 126.16927385 -193.375 124.875 C-190.69082659 123.13938853 -190.69082659 123.13938853 -190.125 119.75 C-190.08375 118.8425 -190.0425 117.935 -190 117 C-186.96333516 119.88145752 -184.53369588 122.89292573 -182.125 126.3125 C-180.75169688 128.20956288 -179.37683396 130.10549815 -178 132 C-177.55140625 132.62261719 -177.1028125 133.24523437 -176.640625 133.88671875 C-165.74320502 147.77756582 -147.46704432 157.74328936 -131 163 C-130.00613281 163.3196875 -129.01226562 163.639375 -127.98828125 163.96875 C-104.5153567 170.20509896 -79.22178401 166.23841787 -58 155 C-53.81232174 152.55718768 -49.88625646 149.8957482 -46 147 C-45.05382812 146.30003906 -44.10765625 145.60007813 -43.1328125 144.87890625 C-24.71765834 130.57017843 -11.02497486 107.7085714 -7.31347656 84.64697266 C-4.28306607 59.05841301 -9.09876965 37.01130967 -22 15 C-17.0778634 11.11090442 -12.10498529 7.2944713 -7.0625 3.5625 C-6.14597656 2.88316406 -5.22945312 2.20382813 -4.28515625 1.50390625 C-2 0 -2 0 0 0 Z M-4 110 C-3.67 110.99 -3.34 111.98 -3 113 C-2.34 113 -1.68 113 -1 113 C-1 112.01 -1 111.02 -1 110 C-1.99 110 -2.98 110 -4 110 Z M-8 120 C-8 120.99 -8 121.98 -8 123 C-7.01 122.67 -6.02 122.34 -5 122 C-5 121.34 -5 120.68 -5 120 C-5.99 120 -6.98 120 -8 120 Z M-37 152 C-36.67 153.65 -36.34 155.3 -36 157 C-35.01 157.33 -34.02 157.66 -33 158 C-33.27617533 156.05925139 -33.27617533 156.05925139 -34 154 C-34.99 153.34 -35.98 152.68 -37 152 Z M-44 157 C-43.01 158.98 -42.02 160.96 -41 163 C-40.34 163 -39.68 163 -39 163 C-39.33 161.35 -39.66 159.7 -40 158 C-41.32 157.67 -42.64 157.34 -44 157 Z M-48 160 C-47.65772428 162.97065509 -47.65772428 162.97065509 -47 166 C-46.34 166.33 -45.68 166.66 -45 167 C-45.33 164.69 -45.66 162.38 -46 160 C-46.66 160 -47.32 160 -48 160 Z M-146 171 C-146.41666667 173.5 -146.41666667 173.5 -146 176 C-144.11624325 178.32483785 -144.11624325 178.32483785 -141 178.1875 C-138.07613397 178.20079609 -138.07613397 178.20079609 -136 177 C-135.7497843 174.08365871 -135.7497843 174.08365871 -136 171 C-140.09913608 168.26724261 -141.90086392 168.26724261 -146 171 Z M-130 176 C-130.07272562 178.55460214 -130.07272562 178.55460214 -129 181 C-126.75691443 182.66390749 -126.75691443 182.66390749 -124 183 C-121.67488528 181.73647948 -121.67488528 181.73647948 -120 180 C-120.37904208 176.70924004 -120.37904208 176.70924004 -122 174 C-126.49885769 173.53277305 -126.49885769 173.53277305 -130 176 Z M-114 177 C-113.67 179.31 -113.34 181.62 -113 184 C-110.69 184 -108.38 184 -106 184 C-105.67 181.69 -105.34 179.38 -105 177 C-109.01009099 174.32660601 -109.98990901 174.32660601 -114 177 Z " fill="#F6F6F6" transform="translate(228,56)"/>
<path d="M0 0 C1.2257373 0.00563965 2.45147461 0.0112793 3.71435547 0.01708984 C25.1882498 0.30333286 44.41613248 6.07801894 63.25 16.3125 C63.25 17.3025 63.25 18.2925 63.25 19.3125 C62.59 19.3125 61.93 19.3125 61.25 19.3125 C61.15589844 20.01246094 61.06179687 20.71242188 60.96484375 21.43359375 C60.11225171 24.86725679 58.64862503 27.35550957 56.8125 30.375 C54.83840286 33.6431817 52.89517074 36.86508192 51.25 40.3125 C50.280625 39.79300781 49.31125 39.27351563 48.3125 38.73828125 C25.47135192 26.76004515 -0.51209059 21.51268905 -25.86328125 28.98828125 C-37.49281475 32.81189083 -47.91997756 37.95004117 -57.75 45.3125 C-58.74644531 46.05113281 -59.74289063 46.78976563 -60.76953125 47.55078125 C-79.20270475 62.0086362 -93.01439595 84.65702758 -96.48876953 107.91650391 C-97.51432715 117.32288007 -97.55701162 126.85926786 -97.75 136.3125 C-101.87682265 138.03130767 -105.93283244 139.09343428 -110.3125 139.9375 C-111.3015332 140.13859375 -111.3015332 140.13859375 -112.31054688 140.34375 C-115.55348637 140.98256019 -118.42611493 141.3125 -121.75 141.3125 C-129.19784268 116.15550833 -119.59250171 84.2407355 -107.63232422 62.01171875 C-103.88380293 55.29311863 -99.72345136 49.20233268 -94.75 43.3125 C-93.90824219 42.30832031 -93.06648438 41.30414063 -92.19921875 40.26953125 C-69.24026195 13.68237821 -34.78765038 -0.16913012 0 0 Z M-88.75 48.3125 C-89.08333333 51.3125 -89.08333333 51.3125 -88.75 54.3125 C-88.09 54.9725 -87.43 55.6325 -86.75 56.3125 C-83.65073181 55.99051034 -83.65073181 55.99051034 -80.75 55.3125 C-80.07326553 51.90929066 -80.07326553 51.90929066 -79.75 48.3125 C-81.57703227 46.0633092 -81.57703227 46.0633092 -84.25 46.0625 C-86.92296773 46.0633092 -86.92296773 46.0633092 -88.75 48.3125 Z M-96.75 60.3125 C-99.08391203 63.09364056 -99.08391203 63.09364056 -98.375 66 C-98.16875 66.763125 -97.9625 67.52625 -97.75 68.3125 C-95.40466049 69.08206136 -95.40466049 69.08206136 -92.75 69.3125 C-90.81345052 68.29279682 -90.81345052 68.29279682 -89.75 66.3125 C-89.41625723 63.72833753 -89.41625723 63.72833753 -89.75 61.3125 C-90.86258591 59.98504834 -90.86258591 59.98504834 -93.6875 60.0625 C-94.698125 60.145 -95.70875 60.2275 -96.75 60.3125 Z " fill="#F7F7F7" transform="translate(123.75,0.6875)"/>
<path d="M0 0 C4.00747207 1.6552602 6.97000075 4.42233645 10.125 7.3125 C10.66253906 7.78623047 11.20007813 8.25996094 11.75390625 8.74804688 C14.86909639 11.58745335 16.80095116 13.93655672 18 18 C17.33613281 18.37769531 16.67226562 18.75539063 15.98828125 19.14453125 C12.24030206 21.47170787 8.72927838 24.06082225 5.1875 26.6875 C4.49462891 27.19861328 3.80175781 27.70972656 3.08789062 28.23632812 C1.39046723 29.48890952 -0.30496826 30.74418403 -2 32 C-7.71048646 29.35043107 -11.15539239 24.862777 -15 20 C-14.37351563 19.16855469 -13.74703125 18.33710937 -13.1015625 17.48046875 C-12.27599902 16.38284458 -11.45048054 15.28518655 -10.625 14.1875 C-10.2125 13.64029297 -9.8 13.09308594 -9.375 12.52929688 C-7.51592968 10.05553395 -5.71710028 7.57565041 -4 5 C-3.34 5 -2.68 5 -2 5 C-1.34 3.35 -0.68 1.7 0 0 Z " fill="#F3F3F3" transform="translate(200,27)"/>
<path d="M0 0 C4.98704856 -0.35480978 8.82919691 -0.58540154 13.375 1.6875 C20.80544408 8.23336741 23.30805887 16.00106087 24.42578125 25.69140625 C24.84186384 37.09206911 22.16782434 48.28578113 14.73046875 57.1953125 C9.41178136 62.74211515 3.96256786 67.65796743 -3 71 C-3.99 71 -4.98 71 -6 71 C-6.495 68.525 -6.495 68.525 -7 66 C-6.34773438 65.79246094 -5.69546875 65.58492188 -5.0234375 65.37109375 C3.82082986 62.25342428 7.62645694 58.15085468 11.6875 49.8125 C17.00730721 37.30237271 18.89326483 26.56903107 14.19140625 13.67578125 C11.86159057 8.44324439 8.87524103 6.20038012 3.6875 4.1875 C2.470625 3.795625 1.25375 3.40375 0 3 C0 2.01 0 1.02 0 0 Z " fill="#FCFCFC" transform="translate(53,83)"/>
<path d="M0 0 C0.33 0.99 0.66 1.98 1 3 C0.39671875 3.17015625 -0.2065625 3.3403125 -0.828125 3.515625 C-7.28912933 5.40369173 -7.28912933 5.40369173 -12 10 C-15.80803088 18.75847103 -15.01296384 29.15804147 -11.9375 38 C-9.30754686 44.16160451 -5.97873899 48.0106305 0 51 C2.24655587 51.14977039 4.49863768 51.22150174 6.75 51.25 C8.56757813 51.28867188 8.56757813 51.28867188 10.421875 51.328125 C14.2748711 50.97479348 16.68175572 49.93394605 20 48 C20 50.1875 20 50.1875 19 53 C15.18912866 56.77011336 10.99238301 58.36783704 5.6875 58.6875 C-1.62403593 58.31176829 -7.60949622 55.16953409 -12.91796875 50.20703125 C-20.68802147 40.9021533 -21.03330397 28.55210613 -20 17 C-18.8358218 11.45535466 -17.27321222 6.69172422 -12.9375 2.875 C-8.44101034 0.00490022 -5.25120604 -0.09907936 0 0 Z " fill="#FCFCFC" transform="translate(185,70)"/>
<path d="M0 0 C0.66 2.64 1.32 5.28 2 8 C1.00613281 7.93039063 0.01226563 7.86078125 -1.01171875 7.7890625 C-5.6813962 8.03603858 -8.69686457 9.31103955 -12.8125 11.375 C-13.47958984 11.69210938 -14.14667969 12.00921875 -14.83398438 12.3359375 C-17.58614824 13.66897348 -19.82361033 14.82361033 -22 17 C-23.43668294 13.1389146 -24.11185208 10.103573 -24 6 C-21.12854755 4.98867084 -18.25354777 3.99075598 -15.375 3 C-14.56675781 2.71382812 -13.75851563 2.42765625 -12.92578125 2.1328125 C-8.46885356 0.61093475 -4.77962528 -0.37123303 0 0 Z " fill="#F3F3F3" transform="translate(30,152)"/>
<path d="M0 0 C1.77706209 2.66559313 2.87548273 5.0280615 4 8 C-3.52094947 12.40772572 -10.9284713 16.66005709 -19 20 C-19.99 17.69 -20.98 15.38 -22 13 C-21.17113281 12.7628125 -20.34226562 12.525625 -19.48828125 12.28125 C-15.39253236 10.77687639 -11.89906353 8.76676953 -8.1875 6.5 C-7.50751953 6.09652344 -6.82753906 5.69304687 -6.12695312 5.27734375 C-2.46621077 3.23959036 -2.46621077 3.23959036 0 0 Z " fill="#F8F8F8" transform="translate(32,160)"/>
<path d="M0 0 C0.33 1.32 0.66 2.64 1 4 C-6.89309685 6.76950767 -14.90955355 8.9001081 -23 11 C-23.33 8.69 -23.66 6.38 -24 4 C-22.741875 3.896875 -21.48375 3.79375 -20.1875 3.6875 C-15.44350563 3.17707023 -11.04066455 1.9963909 -6.48046875 0.62109375 C-4 0 -4 0 0 0 Z " fill="#F6F6F6" transform="translate(27,142)"/>
<path d="M0 0 C1.77706209 2.66559313 2.87548273 5.0280615 4 8 C3 9 3 9 -0.0625 9.0625 C-1.031875 9.041875 -2.00125 9.02125 -3 9 C-3.75 7.3125 -3.75 7.3125 -4 5 C-2.0625 2.25 -2.0625 2.25 0 0 Z " fill="#E7E7E7" transform="translate(32,160)"/>
<path d="M0 0 C2.04718475 3.33262634 2.11814299 5.37228483 1.5390625 9.203125 C1.39726563 10.1828125 1.25546875 11.1625 1.109375 12.171875 C0.94953125 13.18765625 0.7896875 14.2034375 0.625 15.25 C0.47289062 16.28125 0.32078125 17.3125 0.1640625 18.375 C-0.21276221 20.91856682 -0.60115326 23.45980917 -1 26 C-1.33 26 -1.66 26 -2 26 C-2.29211698 17.13911833 -1.44796872 8.73952546 0 0 Z " fill="#E2E2E2" transform="translate(39,105)"/>
<path d="M0 0 C0.99 0 1.98 0 3 0 C3 1.32 3 2.64 3 4 C1.02 4.33 -0.96 4.66 -3 5 C-2.67 3.68 -2.34 2.36 -2 1 C-1.34 1.33 -0.68 1.66 0 2 C0 1.34 0 0.68 0 0 Z " fill="#DBDBDB" transform="translate(162,238)"/>
<path d="M0 0 C0.99 0 1.98 0 3 0 C3 0.66 3 1.32 3 2 C3.99 1.67 4.98 1.34 6 1 C6 2.32 6 3.64 6 5 C3.03 4.505 3.03 4.505 0 4 C0 2.68 0 1.36 0 0 Z " fill="#DBDBDB" transform="translate(83,238)"/>
<path d="M0 0 C0.99 0.33 1.98 0.66 3 1 C2.67 1.99 2.34 2.98 2 4 C2.66 4.33 3.32 4.66 4 5 C3.01 5.33 2.02 5.66 1 6 C-1.1875 4.5625 -1.1875 4.5625 -3 3 C-2.01 2.01 -1.02 1.02 0 0 Z " fill="#FDFDFD" transform="translate(171,33)"/>
<path d="M0 0 C1.32 0 2.64 0 4 0 C4.33 1.32 4.66 2.64 5 4 C4.01 4.495 4.01 4.495 3 5 C0.875 4.0625 0.875 4.0625 -1 3 C-0.67 2.01 -0.34 1.02 0 0 Z " fill="#D2D2D2" transform="translate(241,100)"/>
<path d="" fill="#7F7F7F" transform="translate(0,0)"/>
<path d="" fill="#000000" transform="translate(0,0)"/>
<path d="" fill="#000000" transform="translate(0,0)"/>
<path d="" fill="#FFFFFF" transform="translate(0,0)"/>
<path d="" fill="#FFFFFF" transform="translate(0,0)"/>
<path d="" fill="#000000" transform="translate(0,0)"/>
<path d="" fill="#000000" transform="translate(0,0)"/>
<path d="" fill="#FFFFFF" transform="translate(0,0)"/>
<path d="" fill="#000000" transform="translate(0,0)"/>
<path d="" fill="#000000" transform="translate(0,0)"/>
<path d="" fill="#000000" transform="translate(0,0)"/>
<path d="" fill="#000000" transform="translate(0,0)"/>
<path d="" fill="#FFFFFF" transform="translate(0,0)"/>
</svg>
