<?xml version="1.0" encoding="UTF-8"?>
<svg version="1.1" xmlns="http://www.w3.org/2000/svg" width="228" height="245">
<path d="M0 0 C4.1474161 2.93775307 6.0287975 6.37880625 8 11 C8.41149964 13.80211658 8.64309309 16.26486452 8.6875 19.0625 C8.76774414 20.10374023 8.76774414 20.10374023 8.84960938 21.16601562 C8.88671875 23.22265625 8.88671875 23.22265625 8 27 C5.66645542 29.29567936 2.92075612 30.57069382 0 32 C-0.88937256 32.47493896 -1.77874512 32.94987793 -2.69506836 33.43920898 C-5.7187493 35.05345827 -8.7626368 36.62332384 -11.8125 38.1875 C-14.05879862 39.34725953 -16.30489075 40.5074191 -18.55078125 41.66796875 C-20.20134521 42.5194751 -20.20134521 42.5194751 -21.88525391 43.38818359 C-26.10184298 45.57018086 -30.30243011 47.78169741 -34.5 50 C-42.87818376 54.42174362 -51.28169393 58.79404904 -59.69165039 63.1550293 C-64.72146981 65.76546161 -69.74389488 68.38774637 -74.74609375 71.05078125 C-75.62652344 71.51871094 -76.50695312 71.98664063 -77.4140625 72.46875 C-79.05788828 73.34409995 -80.6999146 74.22284022 -82.33984375 75.10546875 C-87.77923133 78 -87.77923133 78 -90 78 C-90 78.66 -90 79.32 -90 80 C-89.20722656 80.01417969 -88.41445312 80.02835937 -87.59765625 80.04296875 C-63.03753879 81.04708405 -34.08632699 86.39076703 -15 103 C-13.453125 105.03515625 -13.453125 105.03515625 -12.25 107.0625 C-11.63898438 108.06990234 -11.63898438 108.06990234 -11.015625 109.09765625 C-9.28164317 112.3455376 -8.87657042 114.94820431 -8.88647461 118.56323242 C-8.88655014 119.48396042 -8.88662567 120.40468842 -8.88670349 121.35331726 C-8.89186478 122.34402725 -8.89702606 123.33473724 -8.90234375 124.35546875 C-8.90446617 125.88062859 -8.90446617 125.88062859 -8.90663147 127.43659973 C-8.91223293 130.68692964 -8.92478568 133.93719088 -8.9375 137.1875 C-8.94251481 139.38997296 -8.94707775 141.59244701 -8.95117188 143.79492188 C-8.96220283 149.19663804 -8.97894238 154.59831412 -9 160 C-14.17379109 163.25579863 -18.77769402 164.97444109 -24.73046875 166.25390625 C-25.56097244 166.44089584 -26.39147614 166.62788544 -27.24714661 166.82054138 C-29.0032993 167.21328302 -30.76071854 167.60039916 -32.51928711 167.98217773 C-35.13790967 168.55171436 -37.75160868 169.14042885 -40.36523438 169.73242188 C-57.30126616 173.5170178 -74.12119347 176.3819301 -91.5 176.75 C-92.15744202 176.7667981 -92.81488403 176.78359619 -93.49224854 176.80090332 C-109.79751155 177.21610521 -125.61818842 176.81195285 -141.6171875 173.49316406 C-143.33672706 173.13727575 -145.05837477 172.79152098 -146.78125 172.45214844 C-169.06199417 168.06196233 -184.58125511 161.28791824 -201 145 C-203.33252716 141.50120926 -203.31177502 139.7081552 -203.5 135.5625 C-203.68992995 131.38878942 -204.07860354 128.66812051 -206 125 C-206.82563852 118.695124 -206.29057702 112.51393987 -203 107 C-197.86728498 100.35766291 -191.4407896 96.63545428 -184 93 C-182.99259766 92.48759766 -182.99259766 92.48759766 -181.96484375 91.96484375 C-180.64994521 91.29651471 -179.3263708 90.64526147 -178 90 C-178.78375 89.2575 -179.5675 88.515 -180.375 87.75 C-183.98505006 83.96804279 -183.98505006 83.96804279 -185 81 C-182.77861559 72.63626407 -175.73196996 63.50356094 -168.86328125 58.41796875 C-166.9375 57.3125 -166.9375 57.3125 -164 56 C-161.36 58.31 -158.72 60.62 -156 63 C-157.72935976 66.45871951 -159.50023378 69.12363673 -161.8125 72.1875 C-168.30708404 80.34482512 -168.30708404 80.34482512 -171 90 C-170.01 90.495 -170.01 90.495 -169 91 C-168.773125 90.195625 -168.54625 89.39125 -168.3125 88.5625 C-165.67806586 81.41189306 -161.83734642 74.06558187 -156 69 C-153.525 68.01 -153.525 68.01 -151 67 C-147.7 69.64 -144.4 72.28 -141 75 C-142.72683382 78.45366764 -143.44939934 79.61062639 -146.125 82 C-150.95244245 86.66483386 -154.62310997 92.2198168 -158 98 C-158 98.66 -158 99.32 -158 100 C-157.34 100 -156.68 100 -156 100 C-154.61434366 97.98356919 -154.61434366 97.98356919 -153.25 95.4375 C-149.45800624 88.9237589 -145.8045949 83.53350068 -139 80 C-136.13745117 79.56762695 -136.13745117 79.56762695 -133.04296875 79.48828125 C-131.93115234 79.45283203 -130.81933594 79.41738281 -129.67382812 79.38085938 C-128.52333984 79.35830078 -127.37285156 79.33574219 -126.1875 79.3125 C-125.01767578 79.27833984 -123.84785156 79.24417969 -122.64257812 79.20898438 C-119.76181446 79.12667684 -116.88134862 79.05746822 -114 79 C-113.75537451 75.94637738 -113.75537451 75.94637738 -115.4375 73.4375 C-117.86737636 68.091772 -118.96675599 62.77252985 -116.99853516 57.12792969 C-114.30128275 52.90642983 -111.27210888 51.52592724 -106.84375 49.390625 C-106.02741089 48.97891052 -105.21107178 48.56719604 -104.36999512 48.14300537 C-101.75472961 46.82841415 -99.1281146 45.53868007 -96.5 44.25 C-94.79473262 43.40012145 -93.09029663 42.54857258 -91.38671875 41.6953125 C-88.82779876 40.41407641 -86.26829886 39.13419025 -83.70544434 37.86083984 C-75.42234234 33.74026815 -67.24453486 29.42931271 -59.0715332 25.09558105 C-54.22950812 22.53475753 -49.36275372 20.02115518 -44.5 17.5 C-35.14068883 12.64106808 -25.79923507 7.74956079 -16.47265625 2.828125 C-10.75676381 -0.18091624 -6.48874176 -0.82635206 0 0 Z M-11 12 C-10.01 13.32 -9.02 14.64 -8 16 C-7.34 15.01 -6.68 14.02 -6 13 C-5.01 12.34 -4.02 11.68 -3 11 C-6.40254489 9.7848054 -7.93251126 10.13759612 -11 12 Z M-22.625 17.5 C-23.23601562 17.83386719 -23.84703125 18.16773438 -24.4765625 18.51171875 C-25.98641801 19.33742098 -27.49347848 20.16823037 -29 21 C-28.73445312 21.53109375 -28.46890625 22.0621875 -28.1953125 22.609375 C-26.46354167 26.07291667 -24.73177083 29.53645833 -23 33 C-18.71 30.69 -14.42 28.38 -10 26 C-10.81801647 19.28196877 -10.81801647 19.28196877 -14 14 C-17.25914119 14 -19.83330149 15.95502155 -22.625 17.5 Z M-2 14 C-2.99 15.485 -2.99 15.485 -4 17 C-5.32 16.67 -6.64 16.34 -8 16 C-7.34 18.31 -6.68 20.62 -6 23 C-3.50447516 22.21869929 -3.50447516 22.21869929 -1 21 C0.33304698 18.10813214 0.33304698 18.10813214 -0.9375 15.8125 C-1.288125 15.214375 -1.63875 14.61625 -2 14 Z M-37.625 25.5 C-39.06875 26.325 -40.5125 27.15 -42 28 C-41.01 32.29 -40.02 36.58 -39 41 C-35.04 39.02 -31.08 37.04 -27 35 C-27.433125 32.8653125 -27.433125 32.8653125 -27.875 30.6875 C-28.03742188 29.88699219 -28.19984375 29.08648437 -28.3671875 28.26171875 C-28.94478999 25.74698882 -28.94478999 25.74698882 -31 23 C-33.74251195 23 -35.25505845 24.14574768 -37.625 25.5 Z M-53.5625 33.5 C-54.17802734 33.83386719 -54.79355469 34.16773438 -55.42773438 34.51171875 C-56.95283109 35.33929061 -58.47654502 36.1694098 -60 37 C-58.35 40.96 -56.7 44.92 -55 49 C-50.64989137 47.54996379 -47.00891482 46.09990776 -43 44 C-43.11487748 42.41590006 -43.24234508 40.83271037 -43.375 39.25 C-43.44460937 38.36828125 -43.51421875 37.4865625 -43.5859375 36.578125 C-43.99850055 34.00933618 -44.71160957 32.24158985 -46 30 C-48.51023167 30 -51.34315585 32.28859824 -53.5625 33.5 Z M-70.625 42 C-71.62789062 42.556875 -72.63078125 43.11375 -73.6640625 43.6875 C-74.43492187 44.120625 -75.20578125 44.55375 -76 45 C-75.38125 46.051875 -74.7625 47.10375 -74.125 48.1875 C-72.48420892 51.05015677 -71.13015547 53.89207246 -70 57 C-65.94718288 55.77472971 -62.55639236 54.30119506 -59 52 C-59.43173627 46.90551202 -59.75400216 43.15487723 -63 39 C-66.0271098 39 -68.00416068 40.53720596 -70.625 42 Z M-87.1875 50.5 C-88.08855469 50.9640625 -88.98960937 51.428125 -89.91796875 51.90625 C-90.60503906 52.2671875 -91.29210937 52.628125 -92 53 C-91.70351562 53.73605469 -91.40703125 54.47210938 -91.1015625 55.23046875 C-89.68121487 58.8014846 -88.34270489 62.39910963 -87 66 C-82.1725201 64.58707905 -78.2837641 62.57025846 -74 60 C-74.25662245 58.55989519 -74.53090821 57.1229313 -74.8125 55.6875 C-74.96332031 54.88699219 -75.11414063 54.08648437 -75.26953125 53.26171875 C-76.09177473 50.71584187 -76.86686904 49.59597449 -79 48 C-82.48961209 48 -84.11480295 48.90379374 -87.1875 50.5 Z M-103.0625 58.875 C-103.96097656 59.40867188 -104.85945313 59.94234375 -105.78515625 60.4921875 C-108.10835755 61.8103069 -108.10835755 61.8103069 -109 64 C-108.38349775 66.21216768 -108.38349775 66.21216768 -107.3125 68.5625 C-106.97863281 69.36816406 -106.64476563 70.17382812 -106.30078125 71.00390625 C-105.1678029 73.10400455 -105.1678029 73.10400455 -103.18359375 73.9296875 C-100.16401511 74.02691901 -98.39237186 72.98799008 -95.75 71.5625 C-94.85796875 71.08941406 -93.9659375 70.61632812 -93.046875 70.12890625 C-92.03367187 69.57009766 -92.03367187 69.57009766 -91 69 C-92.10043098 61.86092782 -92.10043098 61.86092782 -96 56 C-98.91102553 56 -100.58518821 57.38504845 -103.0625 58.875 Z M-173 67 C-175.28728734 68.83883881 -175.28728734 68.83883881 -175.125 71.625 C-175.08375 72.40875 -175.0425 73.1925 -175 74 C-173.10820797 74.6814823 -173.10820797 74.6814823 -171 75 C-168.71271266 73.16116119 -168.71271266 73.16116119 -168.875 70.375 C-168.91625 69.59125 -168.9575 68.8075 -169 68 C-170.89179203 67.3185177 -170.89179203 67.3185177 -173 67 Z M-160 80 C-161.29633621 81.06645115 -161.29633621 81.06645115 -161.0625 83.5625 C-161.041875 84.366875 -161.02125 85.17125 -161 86 C-158.525 86.495 -158.525 86.495 -156 87 C-155.32041397 84.60280568 -155.32041397 84.60280568 -155 82 C-155.66 81.34 -156.32 80.68 -157 80 C-157.99 80 -158.98 80 -160 80 Z M-130 89 C-129.731875 89.969375 -129.46375 90.93875 -129.1875 91.9375 C-128.47585073 97.22707218 -130.99116998 100.82667872 -134 105 C-136.88475218 108.44821797 -139.88988504 111.75436805 -143 115 C-142.67 115.99 -142.34 116.98 -142 118 C-134.955683 112.39329871 -129.34795214 105.92861861 -125 98 C-124.01 98.33 -123.02 98.66 -122 99 C-123.36687222 95.01328937 -125.15195093 92.11505367 -128 89 C-128.66 89 -129.32 89 -130 89 Z M-92 91 C-91.67 91.99 -91.34 92.98 -91 94 C-90.67 93.01 -90.34 92.02 -90 91 C-90.66 91 -91.32 91 -92 91 Z M-143 93 C-143.66 93.66 -144.32 94.32 -145 95 C-144.67958603 97.60280568 -144.67958603 97.60280568 -144 100 C-142.15274948 100.69159401 -142.15274948 100.69159401 -140 101 C-139.01 100.34 -138.02 99.68 -137 99 C-137.33 97.35 -137.66 95.7 -138 94 C-140.39719432 93.32041397 -140.39719432 93.32041397 -143 93 Z M-119 97 C-117.79618552 99.49361571 -116.54571278 101.68143083 -115 104 C-116.07955259 105.73152958 -117.16382512 107.46011684 -118.25 109.1875 C-118.85328125 110.15042969 -119.4565625 111.11335938 -120.078125 112.10546875 C-122 115 -122 115 -124.234375 117.73828125 C-126.2051178 119.78453608 -126.2051178 119.78453608 -126 122 C-126.66 122 -127.32 122 -128 122 C-128.33 123.32 -128.66 124.64 -129 126 C-125.78885596 125.72997198 -124.96143898 124.9563473 -122.78125 122.48828125 C-122.0284375 121.44027344 -121.275625 120.39226562 -120.5 119.3125 C-119.7471875 118.27738281 -118.994375 117.24226563 -118.21875 116.17578125 C-116.72294518 114.03477893 -115.28833471 111.84987425 -113.9140625 109.62890625 C-113.28242187 108.76136719 -112.65078125 107.89382812 -112 107 C-108.875 106.625 -108.875 106.625 -106 107 C-105.34 107 -104.68 107 -104 107 C-102.21590198 110.06246747 -101.77119979 112.22079273 -101.875 115.75 C-101.89304687 116.54921875 -101.91109375 117.3484375 -101.9296875 118.171875 C-101.95289062 118.77515625 -101.97609375 119.3784375 -102 120 C-99.45297384 121.27351308 -98.5717055 120.80191925 -95.875 120.0625 C-95.15054688 119.86785156 -94.42609375 119.67320313 -93.6796875 119.47265625 C-93.12539062 119.31667969 -92.57109375 119.16070312 -92 119 C-92.72212778 115.81795991 -92.72212778 115.81795991 -95.5 114.3125 C-99.04827103 111.03034929 -98.61804263 108.73627143 -99 104 C-99.66 103.34 -100.32 102.68 -101 102 C-104.59679066 102.32326553 -104.59679066 102.32326553 -108 103 C-108.66 102.01 -109.32 101.02 -110 100 C-112.92914165 98.82917122 -112.92914165 98.82917122 -116 98 C-116.99 97.67 -117.98 97.34 -119 97 Z M-49 100 C-47.84198526 102.84239983 -46.64973661 104.35026339 -44.4375 106.5625 C-39.92541305 111.07458695 -40.75153846 116.52826412 -40.74902344 122.51025391 C-40.82586683 127.97195632 -41.28676073 132.15492987 -44 137 C-46.1875 139 -46.1875 139 -48 140 C-45.0344752 141.28775891 -43.9006334 140.9642958 -40.79296875 139.84765625 C-39.58204103 139.27135828 -38.38041651 138.6752116 -37.1875 138.0625 C-36.56528564 137.74474609 -35.94307129 137.42699219 -35.30200195 137.09960938 C-28.82825432 133.62072234 -24.17488802 129.65520717 -21.875 122.5 C-22.10655628 116.0164243 -24.37900323 110.62099677 -29 106 C-35.27793254 101.60544722 -41.28705119 99.69148205 -49 100 Z M-181 103 C-181.66 103.66 -182.32 104.32 -183 105 C-182.67 105.66 -182.34 106.32 -182 107 C-182.66 107 -183.32 107 -184 107 C-184.33 106.34 -184.66 105.68 -185 105 C-186.12894876 105.93274109 -187.25300876 106.87140122 -188.375 107.8125 C-189.00148437 108.33457031 -189.62796875 108.85664062 -190.2734375 109.39453125 C-192.52159259 111.4850103 -193.89146094 113.18102346 -194.30078125 116.26953125 C-194.325131 121.55342638 -194.25017955 125.59653094 -191 130 C-186.30255309 133.34241415 -182.70075081 134.53463259 -177 135 C-177 134.01 -177 133.02 -177 132 C-177.61875 131.401875 -178.2375 130.80375 -178.875 130.1875 C-182.11641989 126.85074423 -182.80814098 123.53487214 -183.375 119 C-182.88200192 115.05601537 -181.51126441 113.0542405 -179 110 C-177.34338239 108.98343919 -175.67888441 107.97934924 -174 107 C-174 106.01 -174 105.02 -174 104 C-177.40320934 103.32326553 -177.40320934 103.32326553 -181 103 Z M-167 103 C-167.33 103.66 -167.66 104.32 -168 105 C-165.09399739 106.25664978 -163.20395416 107 -160 107 C-160 106.01 -160 105.02 -160 104 C-162.31 103.67 -164.62 103.34 -167 103 Z M-79 103 C-79.66 104.32 -80.32 105.64 -81 107 C-78.93906592 107.223293 -76.8761161 107.42802887 -74.8125 107.625 C-73.66394531 107.74101563 -72.51539063 107.85703125 -71.33203125 107.9765625 C-67.96669584 108.00023426 -65.98778294 107.47419799 -63 106 C-63 105.34 -63 104.68 -63 104 C-68.36095333 102.87137825 -73.55306686 102.90311779 -79 103 Z M-127 105 C-128.29633621 106.06645115 -128.29633621 106.06645115 -128.0625 108.5625 C-128.041875 109.366875 -128.02125 110.17125 -128 111 C-126.35 110.67 -124.7 110.34 -123 110 C-123 108.68 -123 107.36 -123 106 C-124.94603274 105.40929986 -124.94603274 105.40929986 -127 105 Z M-163 116 C-163 116.99 -163 117.98 -163 119 C-161.02 118.67 -159.04 118.34 -157 118 C-157 117.34 -157 116.68 -157 116 C-158.98 116 -160.96 116 -163 116 Z M-117 117 C-116.67 118.65 -116.34 120.3 -116 122 C-114.68 121.67 -113.36 121.34 -112 121 C-112 119.68 -112 118.36 -112 117 C-113.65 117 -115.3 117 -117 117 Z M-138 123 C-138 125.64 -138 128.28 -138 131 C-137.22914063 131.10957031 -136.45828125 131.21914062 -135.6640625 131.33203125 C-134.66117187 131.49058594 -133.65828125 131.64914063 -132.625 131.8125 C-131.62726563 131.96332031 -130.62953125 132.11414063 -129.6015625 132.26953125 C-127 133 -127 133 -125 136 C-124.01 135.67 -123.02 135.34 -122 135 C-122 134.34 -122 133.68 -122 133 C-123.3891399 132.05131909 -124.7848377 131.11090722 -126.2109375 130.21875 C-128.81900471 128.44207539 -131.07768287 126.3163589 -133.38671875 124.171875 C-135.07220694 122.70614716 -135.07220694 122.70614716 -138 123 Z M-105 124 C-108.63633539 127.47998507 -108.63633539 127.47998507 -110 132 C-107.69 132.66 -105.38 133.32 -103 134 C-103 130.7 -103 127.4 -103 124 C-103.66 124 -104.32 124 -105 124 Z M-160.625 131.5 C-161.44226563 131.9640625 -162.25953125 132.428125 -163.1015625 132.90625 C-163.72804687 133.2671875 -164.35453125 133.628125 -165 134 C-165 134.66 -165 135.32 -165 136 C-160.22423661 135.5317879 -156.95523655 134.75668002 -153 132 C-153.33 131.01 -153.66 130.02 -154 129 C-156.74251195 129 -158.25505845 130.14574768 -160.625 131.5 Z M-82 133 C-82 134.32 -82 135.64 -82 137 C-80.09983629 138.80292136 -80.09983629 138.80292136 -77.625 140.25 C-76.81289062 140.77078125 -76.00078125 141.2915625 -75.1640625 141.828125 C-73.11704873 143.15872696 -73.11704873 143.15872696 -71 143 C-71.37792797 140.32543283 -71.79766916 139.19388186 -73.77734375 137.296875 C-74.49019531 136.78640625 -75.20304688 136.2759375 -75.9375 135.75 C-76.64777344 135.22921875 -77.35804688 134.7084375 -78.08984375 134.171875 C-79.9106287 132.82569004 -79.9106287 132.82569004 -82 133 Z M-141 142 C-141 143.32 -141 144.64 -141 146 C-140.01 145.67 -139.02 145.34 -138 145 C-138 144.01 -138 143.02 -138 142 C-138.99 142 -139.98 142 -141 142 Z M-113 144 C-113.33 145.65 -113.66 147.3 -114 149 C-113.01 149.33 -112.02 149.66 -111 150 C-111 148.02 -111 146.04 -111 144 C-111.66 144 -112.32 144 -113 144 Z M-23 147 C-24.3271261 150.9813783 -24.06915913 154.85045227 -24 159 C-23.01 159 -22.02 159 -21 159 C-21 155.04 -21 151.08 -21 147 C-21.66 147 -22.32 147 -23 147 Z " fill="#F9F9F9" transform="translate(220,1)"/>
<path d="M0 0 C0.33 0.66 0.66 1.32 1 2 C1.66 2 2.32 2 3 2 C4.41015625 3.46875 4.41015625 3.46875 6.0625 5.5 C23.55085119 25.75527086 49.24191949 36.1646771 75.47875977 38.82568359 C98.55283974 40.42100587 122.81205031 39.90824812 145 33 C146.4215942 32.61904339 147.84486422 32.24429916 149.26953125 31.875 C162.46574426 28.3843323 172.27253739 22.43527787 183.0859375 14.08984375 C187.15804532 11.16949833 191.45004407 9.0575545 196 7 C197.07538811 30.97619157 197.07538811 30.97619157 191 38 C169.63508836 59.88116415 129.18243987 62.76402122 100.390625 63.23461914 C70.57018222 63.3932921 35.11206323 60.77242053 10 43 C9.071875 42.38125 8.14375 41.7625 7.1875 41.125 C2.37212621 36.44720832 -0.80737728 31.04507702 -1.12939453 24.28271484 C-1.13052246 23.26902832 -1.13165039 22.2553418 -1.1328125 21.2109375 C-1.13410156 20.10492188 -1.13539062 18.99890625 -1.13671875 17.859375 C-1.13285156 16.70953125 -1.12898437 15.5596875 -1.125 14.375 C-1.12886719 13.21742188 -1.13273438 12.05984375 -1.13671875 10.8671875 C-1.13542969 9.76375 -1.13414063 8.6603125 -1.1328125 7.5234375 C-1.13168457 6.51200684 -1.13055664 5.50057617 -1.12939453 4.45849609 C-1 2 -1 2 0 0 Z M10 20 C10 23.3 10 26.6 10 30 C10.66 30 11.32 30 12 30 C13.14352916 27.71294169 13.10334439 26.40735238 13.0625 23.875 C13.041875 22.59625 13.02125 21.3175 13 20 C12.01 20 11.02 20 10 20 Z " fill="#F9F9F9" transform="translate(15,182)"/>
<path d="M0 0 C9.24 0 18.48 0 28 0 C27.34 11.88 26.68 23.76 26 36 C16 37 16 37 0 37 C0 24.79 0 12.58 0 0 Z M9.25 10.9375 C6.19706411 15.09288496 6.34669782 16.93690814 7 22 C7.94208091 24.19411252 7.94208091 24.19411252 10 25 C13.39727068 24.92922353 15.28421879 24.62034372 17.875 22.375 C19.44081436 19.0693919 19.39385329 16.61032183 19 13 C17.57327978 10.85991966 16.36956087 10.19709913 14.125 9 C11.72886059 8.79601646 11.72886059 8.79601646 9.25 10.9375 Z " fill="#FDFDFD" transform="translate(104,182)"/>
<path d="M0 0 C4.82373116 0.60296639 9.58662366 1.21219515 14.375 2 C15.39335938 2.165 16.41171875 2.33 17.4609375 2.5 C20 3 20 3 22 4 C22 16.21 22 28.42 22 41 C11.82163188 39.86907021 11.82163188 39.86907021 6.8125 38.125 C5.84957031 37.79757813 4.88664062 37.47015625 3.89453125 37.1328125 C0.85011272 35.94133966 -2.07588075 34.46205962 -5 33 C-3.35 22.11 -1.7 11.22 0 0 Z M5.2734375 13.19140625 C3.60908816 15.55519074 3.59908122 17.06483526 3.625 19.9375 C3.61726563 20.79214844 3.60953125 21.64679688 3.6015625 22.52734375 C4.0680826 25.4225126 5.08761778 26.81947953 7 29 C9.44480079 28.81171228 9.44480079 28.81171228 12 28 C13.85210842 25.1491437 14.29540724 22.80477314 14.3125 19.4375 C14.32925781 18.67308594 14.34601563 17.90867188 14.36328125 17.12109375 C14.1470157 14.93304999 14.1470157 14.93304999 12.73046875 13.22265625 C10.11233008 11.37282012 7.91269488 11.37019923 5.2734375 13.19140625 Z " fill="#FDFDFD" transform="translate(57,175)"/>
<path d="M0 0 C18 2 18 2 19 3 C19.24726891 5.63142959 19.42898284 8.23700792 19.5625 10.875 C19.6049585 11.66696777 19.64741699 12.45893555 19.69116211 13.27490234 C20.12509689 22.18235236 20.08895419 31.0848136 20 40 C17.22882696 39.85919445 14.45817359 39.71256882 11.6875 39.5625 C10.90181641 39.52318359 10.11613281 39.48386719 9.30664062 39.44335938 C8.1706543 39.38051758 8.1706543 39.38051758 7.01171875 39.31640625 C6.31522217 39.27974854 5.61872559 39.24309082 4.90112305 39.20532227 C3 39 3 39 0 38 C0 25.46 0 12.92 0 0 Z M8 19 C8.33 19.99 8.66 20.98 9 22 C9.66 21.34 10.32 20.68 11 20 C10.01 19.67 9.02 19.34 8 19 Z " fill="#F8F8F8" transform="translate(82,179)"/>
<path d="M0 0 C0.06058594 1.19753906 0.12117188 2.39507812 0.18359375 3.62890625 C0.70271283 13.7595621 1.28909144 23.88089728 2 34 C-5.49701701 36.436168 -12.12309743 37.41136629 -20 37 C-20.10614936 28.89726572 -20.02282331 20.84103373 -19.5625 12.75 C-19.52326416 12.02369385 -19.48402832 11.2973877 -19.44360352 10.54907227 C-19.25541435 7.49433956 -18.97283278 4.91849835 -18 2 C-15.81465083 0.90732542 -14.23281183 0.69994345 -11.8125 0.4375 C-10.70841797 0.31181641 -10.70841797 0.31181641 -9.58203125 0.18359375 C-6.38319517 -0.04385753 -3.20575383 -0.02739961 0 0 Z M-9 19 C-9 19.99 -9 20.98 -9 22 C-8.34 22 -7.68 22 -7 22 C-7 21.01 -7 20.02 -7 19 C-7.66 19 -8.32 19 -9 19 Z " fill="#FDFDFD" transform="translate(153,180)"/>
<path d="M0 0 C3.60905746 2.37596283 6.81757226 5.08332823 10 8 C8.42907612 11.92276945 5.8808061 14.15599766 2.8125 17 C-2.80965046 22.37050903 -6.44874262 28.05504956 -10 35 C-12.70456771 33.04707394 -15.35559751 31.03340377 -18 29 C-19.485 27.9171875 -19.485 27.9171875 -21 26.8125 C-23.65641594 23.07691509 -23.76191405 20.37178854 -23.5546875 15.85546875 C-22.37681233 9.79190008 -18.7345557 5.61354019 -14.3125 1.5 C-9.57540411 -1.57271085 -5.28951827 -1.62878459 0 0 Z M-7 10 C-9.19038423 11.37168238 -9.19038423 11.37168238 -11 13 C-10.67 14.65 -10.34 16.3 -10 18 C-7.58354218 18.16687448 -7.58354218 18.16687448 -5 18 C-4.34 17.34 -3.68 16.68 -3 16 C-3.32041397 13.39719432 -3.32041397 13.39719432 -4 11 C-4.99 10.67 -5.98 10.34 -7 10 Z " fill="#F0F0F0" transform="translate(26,33)"/>
<path d="M0 0 C4.21775732 1.35525536 8.29421322 2.90200114 12.375 4.625 C13.96441406 5.29402344 13.96441406 5.29402344 15.5859375 5.9765625 C16.38257812 6.31429687 17.17921875 6.65203125 18 7 C17.45225112 10.93320997 16.9008054 14.86588215 16.34594727 18.7980957 C16.15775822 20.13551844 15.97057523 21.47308314 15.78442383 22.81079102 C15.51649051 24.73490946 15.24462381 26.65847889 14.97265625 28.58203125 C14.81031494 29.73936768 14.64797363 30.8967041 14.48071289 32.08911133 C14 35 14 35 13 38 C6.92766709 36.56181589 1.08491534 33.77796485 -3 29 C-3.78725252 24.50321363 -2.84688241 20.44496292 -2 16 C-1.70580625 13.79529503 -1.44767227 11.58817781 -1.19238281 9.37866211 C-0.82820073 6.24788222 -0.4131446 3.1246567 0 0 Z M6 15 C6 16.32 6 17.64 6 19 C6.66 18.67 7.32 18.34 8 18 C7.67 17.01 7.34 16.02 7 15 C6.67 15 6.34 15 6 15 Z " fill="#FDFDFD" transform="translate(36,167)"/>
<path d="M0 0 C0.02505615 0.57854736 0.0501123 1.15709473 0.07592773 1.75317383 C0.73394988 16.89719666 0.73394988 16.89719666 2 32 C-6.91 34.475 -6.91 34.475 -16 37 C-17.99265495 25.54223404 -18.21002261 14.59791497 -18 3 C-15.93918639 2.49309416 -13.87626474 1.99475381 -11.8125 1.5 C-10.66394531 1.2215625 -9.51539063 0.943125 -8.33203125 0.65625 C-5.43181171 0.08504615 -2.93903615 -0.13283779 0 0 Z M-12 11 C-14.79921583 15.19882375 -13.86558093 17.12127113 -13 22 C-11.87465895 23.35618499 -11.87465895 23.35618499 -8.9375 23.0625 C-7.968125 23.041875 -6.99875 23.02125 -6 23 C-4.59542263 20.19084526 -4.75104843 18.11189466 -5 15 C-6.1075902 12.57715762 -6.1075902 12.57715762 -8 11 C-9.32 11 -10.64 11 -12 11 Z " fill="#FDFDFD" transform="translate(174,176)"/>
<path d="M0 0 C0.54269531 0.40992188 1.08539063 0.81984375 1.64453125 1.2421875 C2.35996094 1.78101563 3.07539062 2.31984375 3.8125 2.875 C4.52019531 3.40867188 5.22789063 3.94234375 5.95703125 4.4921875 C7.60456297 5.70814781 9.29624211 6.86416141 11 8 C10.42829506 11.33018126 9.54367658 12.69638811 7 14.875 C2.86728445 18.78571017 0.05966879 23.29456917 -2.890625 28.11279297 C-4.75186293 31.13813551 -6.46407651 33.46407651 -9 36 C-12.96 32.7 -16.92 29.4 -21 26 C-17.23509173 13.60717696 -11.10721686 6.55634329 0 0 Z M-10 12 C-10.67801034 14.90073181 -10.67801034 14.90073181 -11 18 C-10.34 18.66 -9.68 19.32 -9 20 C-5.70285207 19.67028521 -4.3773161 19.3773161 -2 17 C-2.32041397 14.39719432 -2.32041397 14.39719432 -3 12 C-5.31 12 -7.62 12 -10 12 Z " fill="#F3F3F3" transform="translate(40,45)"/>
<path d="M0 0 C0.39111677 4.33022134 0.70435252 8.66229719 1 13 C1.103125 14.09699219 1.20625 15.19398438 1.3125 16.32421875 C1.76899353 23.90391344 1.76899353 23.90391344 -0.38671875 26.9765625 C-2.17644434 28.55276334 -3.94945967 29.78754358 -6 31 C-7.3921875 31.928125 -7.3921875 31.928125 -8.8125 32.875 C-11 34 -11 34 -13 34 C-13.90570419 27.10381142 -14.1222984 20.38791455 -14.0625 13.4375 C-14.05798828 12.42880859 -14.05347656 11.42011719 -14.04882812 10.38085938 C-14.03716769 7.92050853 -14.02080378 5.46028761 -14 3 C-5.04878049 0 -5.04878049 0 0 0 Z M-7 15 C-7 15.99 -7 16.98 -7 18 C-6.34 17.67 -5.68 17.34 -5 17 C-5 16.34 -5 15.68 -5 15 C-5.66 15 -6.32 15 -7 15 Z " fill="#FCFCFC" transform="translate(191,172)"/>
<path d="M0 0 C1.07456627 1.11038515 2.14813058 2.22174636 3.21875 3.3359375 C5.06569609 5.12553011 5.06569609 5.12553011 7.59375 6.9140625 C14.70886041 12.41028543 14.70886041 12.41028543 15.4921875 16.6875 C15.22433047 19.86722222 14.64646325 22.87483237 14 26 C13.70139675 28.17944884 13.44492154 30.36140269 13.19238281 32.54663086 C12.82735963 35.70212344 12.41170006 38.85029466 12 42 C8.22270031 40.48908012 6.31320028 38.28723638 3.8125 35.125 C2.77029297 33.82949219 2.77029297 33.82949219 1.70703125 32.5078125 C-0.99846148 28.5331527 -1.12730502 25.1747749 -1.1328125 20.4296875 C-1.13410156 19.36878906 -1.13539062 18.30789062 -1.13671875 17.21484375 C-1.13285156 16.11269531 -1.12898438 15.01054687 -1.125 13.875 C-1.12886719 12.76511719 -1.13273437 11.65523437 -1.13671875 10.51171875 C-1.13542969 9.45339844 -1.13414063 8.39507812 -1.1328125 7.3046875 C-1.13168457 6.33515137 -1.13055664 5.36561523 -1.12939453 4.36669922 C-1 2 -1 2 0 0 Z M6 16 C3.78629949 17.78657757 3.78629949 17.78657757 3.8046875 20.1640625 C3.82789063 20.97617188 3.85109375 21.78828125 3.875 22.625 C3.89304687 23.44226563 3.91109375 24.25953125 3.9296875 25.1015625 C3.95289063 25.72804687 3.97609375 26.35453125 4 27 C5.32 27 6.64 27 8 27 C10.03684712 22.92630576 10.0257259 20.41062136 9 16 C8.01 16 7.02 16 6 16 Z " fill="#FAFAFA" transform="translate(18,150)"/>
<path d="M0 0 C-0.33 6.6 -0.66 13.2 -1 20 C-1.99 20 -2.98 20 -4 20 C-4.33 20.99 -4.66 21.98 -5 23 C-6.77734375 24.38671875 -6.77734375 24.38671875 -8.9375 25.6875 C-9.64777344 26.12449219 -10.35804688 26.56148437 -11.08984375 27.01171875 C-13 28 -13 28 -15 28 C-16.06059488 20.31068715 -16.09928082 12.75493514 -16 5 C-3.04545455 0 -3.04545455 0 0 0 Z M-4 6 C-4 10.29 -4 14.58 -4 19 C-3.67 19 -3.34 19 -3 19 C-3 14.71 -3 10.42 -3 6 C-3.33 6 -3.66 6 -4 6 Z M-12 12 C-13.35618499 13.12534105 -13.35618499 13.12534105 -13.0625 16.0625 C-13.041875 17.031875 -13.02125 18.00125 -13 19 C-11.68 19 -10.36 19 -9 19 C-7.70366379 17.93354885 -7.70366379 17.93354885 -7.9375 15.4375 C-7.958125 14.633125 -7.97875 13.82875 -8 13 C-9.94603274 12.40929986 -9.94603274 12.40929986 -12 12 Z " fill="#F9F9F9" transform="translate(210,166)"/>
<path d="M0 0 C3 0.125 3 0.125 4 1.125 C4.04080783 3.12458364 4.04254356 5.12545254 4 7.125 C2.35 7.785 0.7 8.445 -1 9.125 C-2.5 7.9375 -2.5 7.9375 -4 6.125 C-4.25 3.5 -4.25 3.5 -4 1.125 C-3 0.125 -3 0.125 0 0 Z " fill="#FCFCFC" transform="translate(122,59.875)"/>
<path d="M0 0 C1.65 0.33 3.3 0.66 5 1 C6.125 4.75 6.125 4.75 5 7 C1.85375007 7.26218749 0.38162983 7.24754367 -2.3125 5.5 C-2.869375 5.005 -3.42625 4.51 -4 4 C-3.34 4 -2.68 4 -2 4 C-1.34 2.68 -0.68 1.36 0 0 Z " fill="#F8F8F8" transform="translate(135,53)"/>
<path d="M0 0 C2.125 0.375 2.125 0.375 4 1 C4.125 3.875 4.125 3.875 4 7 C3.34 7.66 2.68 8.32 2 9 C-0.475 8.01 -0.475 8.01 -3 7 C-2.25 2.25 -2.25 2.25 0 0 Z " fill="#F9F9F9" transform="translate(151,44)"/>
<path d="M0 0 C1.32 0.33 2.64 0.66 4 1 C4.625 3.375 4.625 3.375 5 6 C4.34 6.66 3.68 7.32 3 8 C0.875 7.625 0.875 7.625 -1 7 C-1.625 5.1875 -1.625 5.1875 -2 3 C-1.34 2.01 -0.68 1.02 0 0 Z " fill="#F8F8F8" transform="translate(168,36)"/>
<path d="M0 0 C1.65 0.33 3.3 0.66 5 1 C5 2.65 5 4.3 5 6 C3.125 6.625 3.125 6.625 1 7 C0.34 6.34 -0.32 5.68 -1 5 C-0.625 2.375 -0.625 2.375 0 0 Z " fill="#FDFDFD" transform="translate(183,28)"/>
<path d="M0 0 C0.33 1.65 0.66 3.3 1 5 C0.34 5 -0.32 5 -1 5 C-1.33 5.66 -1.66 6.32 -2 7 C-2.99 7 -3.98 7 -5 7 C-5.66 5.35 -6.32 3.7 -7 2 C-4.35261084 0.5393715 -3.10551666 0 0 0 Z " fill="#D5D5D5" transform="translate(158,29)"/>
<path d="M0 0 C0.66 0 1.32 0 2 0 C2.33 1.98 2.66 3.96 3 6 C0 8 0 8 -3 8 C-3.33 6.35 -3.66 4.7 -4 3 C-3.01 3.33 -2.02 3.66 -1 4 C-0.67 2.68 -0.34 1.36 0 0 Z " fill="#E1E1E1" transform="translate(140,67)"/>
<path d="M0 0 C2.125 0.375 2.125 0.375 4 1 C4 2.32 4 3.64 4 5 C2.35 5.33 0.7 5.66 -1 6 C-1.625 4.125 -1.625 4.125 -2 2 C-1.34 1.34 -0.68 0.68 0 0 Z " fill="#FEFEFE" transform="translate(199,21)"/>
<path d="M0 0 C-0.375 2.9375 -0.375 2.9375 -1 6 C-1.99 6.495 -1.99 6.495 -3 7 C-5 5.625 -5 5.625 -7 4 C-7 3.34 -7 2.68 -7 2 C-4.35261084 0.5393715 -3.10551666 0 0 0 Z " fill="#CECECE" transform="translate(202,6)"/>
<path d="M0 0 C1.258125 -0.04125 2.51625 -0.0825 3.8125 -0.125 C4.52019531 -0.14820312 5.22789062 -0.17140625 5.95703125 -0.1953125 C8 0 8 0 11 2 C10.67 2.99 10.34 3.98 10 5 C7.69 4.34 5.38 3.68 3 3 C3 2.34 3 1.68 3 1 C2.01 0.67 1.02 0.34 0 0 Z " fill="#B7B7B7" transform="translate(212,1)"/>
<path d="M0 0 C0.99 0.33 1.98 0.66 3 1 C3 1.66 3 2.32 3 3 C3.66 3.33 4.32 3.66 5 4 C5 4.66 5 5.32 5 6 C2.525 5.01 2.525 5.01 0 4 C0 2.68 0 1.36 0 0 Z " fill="#C4C4C4" transform="translate(88,124)"/>
<path d="" fill="#FFFFFF" transform="translate(0,0)"/>
<path d="" fill="#000000" transform="translate(0,0)"/>
<path d="" fill="#000000" transform="translate(0,0)"/>
<path d="" fill="#000000" transform="translate(0,0)"/>
</svg>
